<svg id="Layer_1" enable-background="new 0 0 512 512" height="512" viewBox="0 0 512 512" width="512" xmlns="http://www.w3.org/2000/svg"><g><path d="m175.667 222.8h160.667c8.284 0 15-6.716 15-15v-42.512c0-19.388-11.629-36.566-29.626-43.764l-8.438-3.376c-15.136 13.776-35.239 22.185-57.27 22.185s-42.134-8.409-57.27-22.185l-8.438 3.376c-17.997 7.197-29.626 24.375-29.626 43.764v42.512c.001 8.284 6.716 15 15.001 15z"/><circle cx="256" cy="55.167" r="55.167"/><path d="m222.739 417.733v-13.005c9.302-11.384 14.357-25.503 14.357-40.4 0-17.095-6.659-33.169-18.751-45.261l-69.178-69.178c-12.549-12.549-32.895-12.549-45.443 0s-12.549 32.895 0 45.443l34.348 34.348c6.028 6.028 5.853 15.91-.525 21.714-5.973 5.436-15.277 4.911-20.988-.8l-38.493-38.493c-8.893-8.893-13.794-20.722-13.8-33.321l.001-102.6c0-26.391-20.994-49.173-49.162-49.21-8.641-.011-15.103 6.94-15.103 15l-.002 154.016c.003 18.664 7.269 36.205 20.458 49.394l72.35 72.353z"/><path d="m223.805 447.733h-128.533c-8.284 0-15 6.716-15 15v34.267c0 8.284 6.716 15 15 15h128.533c8.284 0 15-6.716 15-15v-34.267c0-8.284-6.716-15-15-15z"/><path d="m511.997 141.971c.001-8.06-6.462-15.011-15.103-15-28.168.037-49.162 22.819-49.162 49.21l.001 102.6c-.006 12.599-4.908 24.428-13.8 33.321l-38.493 38.493c-5.711 5.711-15.014 6.237-20.988.8-6.378-5.804-6.553-15.686-.525-21.714l34.348-34.348c12.549-12.549 12.549-32.895 0-45.443s-32.895-12.549-45.443 0l-69.178 69.178c-12.092 12.092-18.751 28.166-18.751 45.261 0 14.897 5.056 29.016 14.357 40.4v13.005h129.931l72.35-72.353c13.189-13.189 20.455-30.73 20.458-49.394z"/><path d="m416.728 447.733h-128.533c-8.284 0-15 6.716-15 15v34.267c0 8.284 6.716 15 15 15h128.533c8.284 0 15-6.716 15-15v-34.267c0-8.284-6.716-15-15-15z"/></g></svg>