<svg id="Capa_1" enable-background="new 0 0 512.019 512.019" height="512" viewBox="0 0 512.019 512.019" width="512" xmlns="http://www.w3.org/2000/svg"><g><path d="m296.01 0c-78.851 0-143 64.149-143 143s64.149 143 143 143 143-64.149 143-143-64.15-143-143-143zm15.019 208.011v3.139c0 8.284-6.716 15-15 15s-15-6.716-15-15v-1.443c-6.916-1.211-13.231-3.797-21.205-9.016-6.932-4.537-8.873-13.834-4.336-20.766 4.538-6.933 13.833-8.872 20.766-4.336 7.3 4.778 9.673 5.145 19.675 5.081 9.648-.063 13.493-7.633 14.244-12.097.675-4.01-.081-9.342-7.517-11.973-11.416-4.04-24.862-9.169-34.272-16.547-20.657-16.196-14.317-53.078 12.646-62.884v-2.169c0-8.284 6.716-15 15-15s15 6.716 15 15v1.234c9.938 2.929 16.888 9.116 16.888 9.116 6.053 5.604 6.451 15.05.872 21.139-5.586 6.096-15.047 6.519-21.156.956-3.87-2.866-9.769-4.103-15.982-2.22-4.024 1.213-5.098 5.359-5.332 6.601-.486 2.587.206 4.329.576 4.619 6.106 4.789 18.294 9.229 25.769 11.874 39.526 13.983 34.704 66.558-1.636 79.692z"/><path d="m433.58 292.15-145.65 42.9c4.61 11.28 7.08 23.56 7.08 36.27v5.27c0 37.371-38.608 62.232-72.6 46.94l-76.35-34.36c-7.55-3.4-10.92-12.28-7.52-19.83 3.4-7.56 12.28-10.93 19.83-7.53l76.35 34.36c14.112 6.358 30.29-3.861 30.29-19.58v-5.27c0-25.776-15.612-48.545-38.697-58.933l-65.973-29.687c-25.68-11.56-55.08-11.42-80.57.35l-70.97 32.3c-5.35 2.43-8.79 7.77-8.79 13.65v159.618c0 11.281 10.769 18.035 20.34 14.402l99.88-38.05 118.8 41.58c27.009 9.451 56.679 6.588 81.42-8.08l161.61-95.17c18.47-10.95 29.95-31.09 29.95-52.57 0-40.648-39.056-70.185-78.43-58.58z"/></g></svg>