<svg id="Layer_1" enable-background="new 0 0 512.03 512.03" height="512" viewBox="0 0 512.03 512.03" width="512" xmlns="http://www.w3.org/2000/svg"><path d="m497.398 112.672c-39.2-39.2-58.058-61.54-73.37-61.54h-42.3c-11.99-11.32-26.63-19.82-42.73-24.42-8.49-2.42-17.35 2.49-19.78 10.99-2.43 8.49 2.49 17.35 10.99 19.78 8.79 2.51 16.96 6.71 24.09 12.23-.518.88 1.316-2.732-28.43 56.76l-215.6 11.97c-29.982 1.677-57.036 16.98-73.91 40.563-.813.87 1.986-2.583-32.824 40.93-9.075 11.344.55 28.075 15.013 25.772.912 9.123 2.499 14.268 6.001 28.275 6.917 27.636-6.112 46.647-7.67 50.54-8.061 20.355-9.44 22.045-8.71 27.52 8.312 62.354 8.202 61.504 16 120 1.142 8.58 8.972 14.895 17.97 13.75 8.76-1.17 14.92-9.22 13.75-17.98l-11.09-83.16c38.081-13.604 31.756-11.098 37.399-13.91l13.981 101.373c1.105 8.013 7.963 13.816 15.83 13.816 9.773 0 17.189-8.62 15.87-18.188l-15.77-114.343c13.53-10.27 24.74-23.18 33.01-37.84 32.324 14.678 70.727 20.157 106.58 17.88 4.804 72.015 4.336 66.235 4.7 67.92.536 2.411-3.38-15.239 16.01 72.04 1.934 8.69 10.537 14.049 19.09 12.15 8.63-1.92 14.07-10.47 12.15-19.09l-14.88-66.96 34.04-79.43 5.26 78.92c.109 1.76-1.087-4.013 16.34 74.41 1.934 8.69 10.537 14.049 19.09 12.15 8.63-1.92 14.07-10.47 12.15-19.09l-15.74-70.81-7.3-109.51c17.16-12.37 30.94-29 40-48.62l20.29-43.96c3.64 1.13 7.36 2.04 11.13 2.74v9.628c0 8.837 7.163 16 16 16s16-7.163 16-16v-7.998h6.06c44.637.002 66.484-54.05 35.31-85.258z"/></svg>