<svg id="Capa_1" enable-background="new 0 0 512 512" height="512" viewBox="0 0 512 512" width="512" xmlns="http://www.w3.org/2000/svg"><g><g><path d="m329.93 191.43c-2.28-5.7-7.8-9.43-13.93-9.43h-120c-6.13 0-11.65 3.73-13.93 9.43l-48.001 119.999c-3.935 9.837 3.318 20.571 13.927 20.571h216.008c10.595 0 17.867-10.721 13.927-20.571z"/></g><g><path d="m196.946 371.43c-2.28-5.7-7.8-9.43-13.93-9.43h-120c-6.13 0-11.65 3.73-13.93 9.43l-48.001 119.999c-3.935 9.837 3.319 20.571 13.927 20.571h216.008c10.595 0 17.867-10.721 13.927-20.571z"/></g><g><path d="m462.913 371.43c-2.28-5.7-7.8-9.43-13.93-9.43h-120c-6.13 0-11.65 3.73-13.93 9.43l-48.001 119.999c-3.935 9.837 3.318 20.571 13.927 20.571h216.008c10.595 0 17.867-10.721 13.927-20.571z"/></g><g><path d="m134.95 172.163-69.869-69.869c-5.858-5.857-5.859-15.355 0-21.213 5.857-5.858 15.355-5.858 21.213 0l69.869 69.869c5.858 5.857 5.859 15.355 0 21.213-5.857 5.858-15.355 5.859-21.213 0z"/></g><g><path d="m355.837 172.163c-5.858-5.858-5.858-15.355 0-21.213l69.869-69.869c5.858-5.858 15.356-5.857 21.213 0 5.858 5.858 5.858 15.355 0 21.213l-69.869 69.869c-5.858 5.858-15.356 5.859-21.213 0z"/></g><g><path d="m186.223 142.74-30.185-72.873c-3.17-7.654.464-16.428 8.118-19.599 7.655-3.169 16.428.464 19.599 8.118l30.185 72.873c3.17 7.654-.464 16.428-8.118 19.599-7.671 3.177-16.435-.48-19.599-8.118z"/></g><g><path d="m306.179 150.858c-7.653-3.17-11.288-11.945-8.118-19.599l30.185-72.873c3.17-7.654 11.942-11.288 19.599-8.118 7.653 3.17 11.288 11.945 8.118 19.599l-30.185 72.873c-3.154 7.614-11.906 11.303-19.599 8.118z"/></g><g><path d="m256 152c-8.284 0-15-6.716-15-15v-122c0-8.284 6.716-15 15-15s15 6.716 15 15v122c0 8.284-6.716 15-15 15z"/></g></g></svg>