<?xml version="1.0" encoding="UTF-8"?>
<!DOCTYPE svg PUBLIC "-//W3C//DTD SVG 1.1//EN" "http://www.w3.org/Graphics/SVG/1.1/DTD/svg11.dtd">
<!-- Creator: CorelDRAW X8 -->
<svg xmlns="http://www.w3.org/2000/svg" xml:space="preserve" width="297mm" height="420mm" version="1.1" style="shape-rendering:geometricPrecision; text-rendering:geometricPrecision; image-rendering:optimizeQuality; fill-rule:evenodd; clip-rule:evenodd"
viewBox="0 0 29700 42000"
 xmlns:xlink="http://www.w3.org/1999/xlink">
 <defs>
  <style type="text/css">
   <![CDATA[
    .fil15 {fill:none}
    .fil1 {fill:#FEFEFE;fill-rule:nonzero}
    .fil5 {fill:#F49E2C;fill-rule:nonzero}
    .fil8 {fill:#E83E4D;fill-rule:nonzero}
    .fil6 {fill:#F8BD1E;fill-rule:nonzero}
    .fil9 {fill:#CF2A3F;fill-rule:nonzero}
    .fil10 {fill:#C28127;fill-rule:nonzero}
    .fil12 {fill:#C29B24;fill-rule:nonzero}
    .fil13 {fill:#2570B7;fill-rule:nonzero}
    .fil14 {fill:#0C64A8;fill-rule:nonzero}
    .fil4 {fill:#038E81;fill-rule:nonzero}
    .fil11 {fill:#057D71;fill-rule:nonzero}
    .fil7 {fill:#057D71;fill-rule:nonzero}
    .fil0 {fill:#24B5A7;fill-rule:nonzero}
    .fil2 {fill:#3AC9BB;fill-rule:nonzero}
    .fil3 {fill:#3AC9BB;fill-rule:nonzero}
   ]]>
  </style>
   <clipPath id="id0">
    <path d="M14850 14682c3489,0 6318,2829 6318,6318 0,3489 -2829,6318 -6318,6318 -3489,0 -6318,-2829 -6318,-6318 0,-3489 2829,-6318 6318,-6318z"/>
   </clipPath>
 </defs>
 <g id="Layer_x0020_1">
  <metadata id="CorelCorpID_0Corel-Layer"/>
  <g>
  </g>
  <g style="clip-path:url(#id0)">
   <g>
    <g id="_2310478839152">
     <path class="fil0" d="M23084 15791l0 7818c-2326,730 -4919,1064 -7590,535 -412,-81 -826,-183 -1241,-308 -392,-117 -785,-255 -1179,-413 -3086,-1244 -5120,-1580 -6458,-1454l0 -6178c0,-650 527,-1178 1178,-1178l14112 0c651,0 1178,528 1178,1178z"/>
     <path class="fil1" d="M18162 24403c-967,0 -1953,-98 -2950,-318 94,21 188,40 282,59l0 0c901,178 1793,259 2669,259 271,0 540,-8 807,-23 -267,15 -537,23 -808,23z"/>
     <path class="fil2" d="M18163 24403c-876,0 -1768,-81 -2669,-259l0 -955c228,280 576,459 965,459 634,0 1158,-475 1234,-1089 2305,-599 4147,-1392 5391,-2019l0 3069c-1299,408 -2681,692 -4114,771 -267,15 -536,23 -807,23z"/>
     <path class="fil1" d="M14581 23930c-438,-119 -877,-263 -1317,-432 330,127 660,239 989,338l0 0c109,33 219,64 328,94zm-1318 -433c-1,0 -2,-1 -3,-1 1,0 2,1 3,1zm-6 -2c-1,0 -1,0 -2,-1 1,1 1,1 2,1z"/>
     <path class="fil3" d="M14253 23836l0 0c-329,-99 -659,-211 -989,-338 -1,-1 -1,-1 -1,-1 -1,0 -2,-1 -3,-1 -1,0 -2,-1 -3,-1 -1,0 -1,0 -2,-1 -60,-23 -121,-47 -181,-71l0 0c-50,-20 -100,-40 -150,-60 453,-36 896,-83 1329,-138l0 611z"/>
     <path class="fil4" d="M15494 21995l0 2149c-412,-81 -826,-183 -1241,-308l0 -1841 1241 0z"/>
     <polygon class="fil4" points="14253,22463 15494,22463 15494,21995 14253,21995 "/>
     <path class="fil4" d="M12872 17827c-906,0 -1640,735 -1640,1641l0 2527 3281 0 0 -2527c0,-906 -735,-1641 -1641,-1641z"/>
     <path class="fil5" d="M15262 18814l0 2119c0,148 -121,269 -269,269l-3879 0c-148,0 -268,-121 -268,-269l0 -2119 2208 1302 2208 -1302z"/>
     <path class="fil6" d="M15188 21118l-1422 -1422 -712 420 -712 -420 -1422 1421c49,52 118,85 194,85l3879 0c77,0 146,-33 195,-84z"/>
     <polygon class="fil5" points="13054,20310 13928,19858 13766,19696 13054,20116 12342,19696 12182,19856 "/>
     <polygon class="fil6" points="10846,18814 15262,18814 13054,20116 "/>
     <polygon class="fil4" points="10429,21994 14512,21994 14512,21627 10429,21627 "/>
     <path class="fil4" d="M17039 17827l-4167 0c906,0 1640,734 1640,1640l0 2527 4168 0 0 -2527c0,-906 -735,-1640 -1641,-1640z"/>
     <polygon class="fil7" points="10429,21994 14512,21994 14512,21797 10429,21797 "/>
     <polygon class="fil7" points="14512,21994 18680,21994 18680,21797 14512,21797 "/>
     <path class="fil7" d="M17040 17827l-1561 0c906,0 1641,735 1641,1641l0 2527 1560 0 0 -2527c0,-906 -734,-1641 -1640,-1641z"/>
     <path class="fil1" d="M15928 20428c0,-270 -219,-490 -489,-490 -270,0 -490,220 -490,490 0,270 220,489 490,489 270,0 489,-219 489,-489z"/>
     <path class="fil7" d="M15707 20428c0,-148 -120,-269 -268,-269 -148,0 -268,121 -268,269 0,148 120,268 268,268 148,0 268,-120 268,-268z"/>
     <polygon class="fil7" points="15355,20428 15508,20428 15508,16710 15355,16710 "/>
     <polygon class="fil8" points="15505,18056 16986,17411 15505,16765 "/>
     <polygon class="fil9" points="16479,17190 15505,17524 15505,18056 16986,17411 "/>
     <polygon class="fil7" points="14513,21995 14512,21995 14512,21627 14093,21627 14093,21202 14512,21202 14512,21994 14513,21995 "/>
     <path class="fil10" d="M14512 20442l-419 -419 0 -520 407 -239c8,67 12,134 12,203l0 975z"/>
     <path class="fil11" d="M14377 18814l-419 0c-226,-519 -713,-899 -1295,-973 69,-9 138,-14 209,-14l0 0c534,0 1007,255 1307,649 79,104 146,217 198,338z"/>
     <polygon class="fil12" points="14512,21202 14093,21202 14093,20023 14512,20442 "/>
     <path class="fil12" d="M14093 19503l0 -36c0,-232 -48,-453 -135,-653l419 0c61,141 103,292 123,450l-407 239z"/>
     <path class="fil13" d="M14512 21994l0 -2527c0,-69 -4,-136 -12,-203 -20,-158 -62,-309 -123,-450 -52,-121 -119,-234 -198,-338 209,275 334,619 334,991l0 2330 -1 0 0 197z"/>
     <polygon class="fil14" points="14512,21994 14512,21797 14513,21994 "/>
     <path class="fil3" d="M12130 16922c-77,0 -140,-63 -140,-141 0,-78 63,-141 140,-141 78,0 141,63 141,141 0,78 -63,141 -141,141zm0 -426c-157,0 -285,128 -285,285 0,157 128,285 285,285 157,0 285,-128 285,-285 0,-157 -128,-285 -285,-285z"/>
     <path class="fil3" d="M19413 20739c-93,0 -168,-76 -168,-168 0,-93 75,-169 168,-169 93,0 168,76 168,169 0,92 -75,168 -168,168zm0 -509c-188,0 -340,153 -340,341 0,187 152,340 340,340 188,0 340,-153 340,-340 0,-188 -152,-341 -340,-341z"/>
     <path class="fil3" d="M9730 21647c-49,0 -88,-39 -88,-88 0,-48 39,-88 88,-88 48,0 88,40 88,88 0,49 -40,88 -88,88zm0 -266c-99,0 -178,80 -178,178 0,99 79,178 178,178 98,0 178,-79 178,-178 0,-98 -80,-178 -178,-178z"/>
     <path class="fil3" d="M19449 16583c-47,0 -85,-38 -85,-85 0,-47 38,-85 85,-85 47,0 85,38 85,85 0,47 -38,85 -85,85zm0 -257c-95,0 -172,77 -172,172 0,95 77,172 172,172 95,0 173,-77 173,-172 0,-95 -78,-172 -173,-172z"/>
     <path class="fil3" d="M14856 17420c0,67 -54,121 -121,121 -67,0 -121,-54 -121,-121 0,-67 54,-122 121,-122 67,0 121,55 121,122z"/>
     <path class="fil3" d="M21003 19495c0,-91 -73,-165 -164,-165 -91,0 -164,74 -164,165 0,90 73,164 164,164 91,0 164,-74 164,-164z"/>
     <path class="fil3" d="M13585 17145c0,-67 -54,-122 -122,-122 -67,0 -121,55 -121,122 0,67 54,122 121,122 68,0 122,-55 122,-122z"/>
     <path class="fil3" d="M18508 23553c0,-89 -72,-161 -161,-161 -89,0 -161,72 -161,161 0,89 72,161 161,161 89,0 161,-72 161,-161z"/>
     <path class="fil3" d="M13431 22659c0,-77 -62,-140 -140,-140 -77,0 -139,63 -139,140 0,77 62,140 139,140 78,0 140,-63 140,-140z"/>
     <path class="fil3" d="M9312 19771c0,-83 -67,-150 -150,-150 -83,0 -151,67 -151,150 0,83 68,151 151,151 83,0 150,-68 150,-151z"/>
     <path class="fil3" d="M17225 16626l-48 -48 48 -47c22,-23 22,-59 0,-81 -22,-22 -58,-22 -81,0l-47 48 -48 -48c-22,-22 -58,-22 -80,0 -22,22 -22,58 0,81l47 47 -47 48c-22,22 -22,58 0,80 22,22 58,22 80,0l48 -47 47 47c23,22 59,22 81,0 22,-22 22,-58 0,-80z"/>
     <path class="fil3" d="M20927 17844l-57 -56 57 -57c26,-26 26,-69 0,-95 -27,-26 -69,-26 -96,0l-56 56 -56 -56c-26,-26 -69,-26 -96,0 -26,26 -26,69 0,95l57 57 -57 56c-26,26 -26,69 0,95 27,26 70,26 96,0l56 -56 56 56c27,26 69,26 96,0 26,-26 26,-69 0,-95z"/>
     <path class="fil3" d="M19393 22638l-59 -60 59 -60c28,-27 28,-73 0,-100 -27,-28 -73,-28 -100,0l-60 59 -60 -59c-27,-28 -73,-28 -101,0 -27,27 -27,73 0,100l60 60 -60 60c-27,27 -27,73 0,100 28,28 74,28 101,0l60 -59 60 59c27,28 73,28 100,0 28,-27 28,-73 0,-100z"/>
     <path class="fil3" d="M10418 20553l-51 -50 51 -50c23,-23 23,-61 0,-84 -24,-24 -62,-24 -85,0l-50 50 -50 -50c-24,-24 -62,-24 -85,0 -23,23 -23,61 0,84l50 50 -50 50c-23,24 -23,62 0,85 23,23 61,23 85,0l50 -50 50 50c23,23 61,23 85,0 23,-23 23,-61 0,-85z"/>
     <path class="fil7" d="M11743 18814l-376 0c120,-276 314,-512 556,-684 -1,248 -66,482 -180,684z"/>
     <path class="fil3" d="M16459 23648c-389,0 -737,-179 -965,-459l0 -153c772,-135 1506,-297 2199,-477 -76,614 -600,1089 -1234,1089z"/>
     <path class="fil13" d="M18680 19518l0 -50c0,-585 -306,-1098 -766,-1389 460,291 766,804 766,1388l0 51c0,0 0,0 0,0zm-767 -1439c0,0 0,0 0,0 0,0 0,0 0,0z"/>
    </g>
   </g>
  </g>
  <path class="fil15" d="M14850 14682c3489,0 6318,2829 6318,6318 0,3489 -2829,6318 -6318,6318 -3489,0 -6318,-2829 -6318,-6318 0,-3489 2829,-6318 6318,-6318z"/>
 </g>
</svg>
