<svg xmlns="http://www.w3.org/2000/svg" width="28750.662" height="14852.125" viewBox="0 0 28750.662 14852.125">
  <g id="Group_87" data-name="Group 87" transform="translate(16521 -5654)">
    <g id="Group_86" data-name="Group 86" transform="translate(-8357 -706.998)">
      <path id="Path_1044" data-name="Path 1044" d="M1683.219,14844.693s-3294.183-3536.735-557.073-7365.967c2428.482-3397.433,5259.722-3165.12,7336.928-1786.395,884.781,587.235,3435.592,72.387,5606.789-3384.667C17029.887-2406.768,27293.73,452.53,25422.463,7705.849c-905.682,3510.083,2755.906,3637.6,890.248,7146.278Z" transform="translate(-7655.961 6360.995)" fill="#038f83"/>
      <path id="Path_1045" data-name="Path 1045" d="M2796.9,2470.711S1167.626,151.091,530.45,451.862,2796.9,2470.711,2796.9,2470.711Z" transform="translate(-2443.611 11897.469)" fill="#16427f"/>
      <path id="Path_1046" data-name="Path 1046" d="M1278.465,2084.447S1029.458,340,636.658,408.738,1278.465,2084.447,1278.465,2084.447Z" transform="translate(-1028.844 11660.441)" fill="#bed2fa"/>
      <path id="Path_1047" data-name="Path 1047" d="M3104.061,1725.451s156.558-776.056-451.719-873.557c0,0-412.58-14.03-655.554,141.129,0,0,690.064,398.408,608,522.141s-736.78-499.278-736.78-499.278-739.726,323.922-904.7,558.619c0,0,873.979,155.716,764,255.458s-1027.03-20.059-1027.03-20.059-590.883,475.986-333.6,854.9,551.182,376.247,644.191,310.313,548.1-609.823,605.893-535.893-142.389,533.083-378.77,682.068c0,0,743.512,250.409,967.97-67.057s120.505-564.228,262.613-757.541,304.981-284.358,275.8-151.508-326.023,412.018-327.285,665.794-26.515,438.676,263.456,214.218,675.2-743.514,549.5-1021.42Z" transform="translate(-4232.184 17455.639)" fill="#16427f"/>
      <path id="Path_1048" data-name="Path 1048" d="M329.71,1730.95s1735.47-1059.3,2410.523-770.868c0,0,231.612,210.425,630.023,298.388l104.933,90.062s-488.475-152.352-609.4-110.544C2865.789,1237.988,2686.785,513.132,329.71,1730.95Z" transform="translate(-3868.359 18221.008)" fill="#16427f"/>
      <path id="Path_1049" data-name="Path 1049" d="M661.273,935.794s537.995,68.878,845.5,557.073l-66.213,44.331s-412.16-452.141-745.479-533.085S661.273,935.794,661.273,935.794Z" transform="translate(-1159.375 18543.684)" fill="#3a49cd"/>
      <path id="Path_1050" data-name="Path 1050" d="M4831.771,3783.746s1260.184-705.776,672.107-1663.5c0,0-470.377-588.078-974.423-739.3,0,0,268.786,1428.245,0,1461.772s-184.9-1613.283-184.9-1613.283S3017.178,590.991,2496.3,641.354c0,0,823.335,1394.576,554.548,1360.769S1858.42,557.183,1858.42,557.183,497.651,304.668,278.947,1111.73,413.48,2321.41,615.632,2371.915s1495.443,33.527,1461.774,201.591S1170.04,3010.352,682.828,2859.126c0,0,537.714,1327.381,1243.35,1260.185s924.061-504.046,1360.769-537.714,756.138,84.169,537.714,201.729-957.729,38.438-1310.547,338.51-638.439,484.685,16.835,619.22,1831.426,50.362,2066.685-453.684Z" transform="translate(-5428.773 13132.855)" fill="#16427f"/>
      <path id="Path_1051" data-name="Path 1051" d="M259.14,580S3787.6,1722.062,4190.779,2999.081c0,0-16.695,571.244,336.686,1226.515v252.515s-370.355-857.425-571.8-974.984C3955.66,3503.127,4745.327,2394.171,259.14,580Z" transform="translate(-4787.781 13917.521)" fill="#00265d"/>
      <path id="Path_1052" data-name="Path 1052" d="M720.2,985.371S1264.372,1811.654,954.061,2817.5l-140.287-37.6s135.8-1108.254-148.843-1665.05S720.2,985.371,720.2,985.371Z" transform="translate(-981.084 17157.75)" fill="#3a49cd"/>
      <path id="Path_1053" data-name="Path 1053" d="M2387.171,331.56,501.735,10079.154a321.254,321.254,0,0,0,315.5,382.279H1811.58Z" transform="translate(-1703.367 10680.709)" fill="#002964"/>
      <path id="Path_1054" data-name="Path 1054" d="M2017.346,2513.734s-848.023-540.94-400.928-1183.449c0,0,350.708-390.132,707.181-475.146,0,0-243.963,982-58.364,1016.507s192.9-1114.286,192.9-1114.286S3406.6,366.385,3766.854,422.219c0,0-628.2,936.827-439.938,924.2s887.16-957.449,887.16-957.449,956.468-120.926,1076.269,448.914-141.828,835.82-284.074,862.9-1041.2-36.334-1024.087,81.787,613.474,340.051,958.294,254.337c0,0-426.749,901.473-914.8,826.562s-622.446-387.328-924.9-428.151-529.162,28.057-382,118.681,664.4,65.093,897.826,287.725,424.644,362.638-36.336,429.975-1275.613-38.157-1418.984-397.989Z" transform="translate(11199.555 11288.814)" fill="#16427f"/>
      <path id="Path_1055" data-name="Path 1055" d="M4626.412,421.72S2127.227,1075.448,1795.873,1947.184c0,0-11.078,397.989-282.676,839.608l-9.958,175.216s291.231-581.063,436.151-654.852C1939.389,2307.156,1434.5,1504.443,4626.412,421.72Z" transform="translate(11421.029 11855.363)" fill="#002964"/>
      <path id="Path_1056" data-name="Path 1056" d="M1763.478,685.739S1352.162,1238.6,1527.653,1950.413l98.2-20.623s-50.22-775.776,170.027-1151.883S1763.478,685.739,1763.478,685.739Z" transform="translate(11171.457 13956.416)" fill="#93b3f4"/>
      <path id="Path_1057" data-name="Path 1057" d="M2359.737,3976.492S1056.624,3690.31,1319.8,2685.866c0,0,258.407-645.313,663.41-914.661,0,0,145.059,1334.535,391.68,1292.169S2106.1,1587.992,2106.1,1587.992,3108.293,667.86,3582.322,572.887c0,0-354.08,1453.357-125.417,1351.65S4124.241,328.089,4124.241,328.089,5259.713-259.427,5668.93,395s205.374,1105.449,40.677,1204.07-1312.929,430.4-1238.155,569.84,919.01,143.091,1309.281-121.066c0,0-119.662,1317.42-761.473,1447.044s-951.972-197.943-1346.739-110.545S3027.212,3661.13,3251.667,3707s857.007-222.493,1249.244-51.906S5195.182,3912.522,4652,4206.98,3046.572,4742.31,2703.572,4359.751Z" transform="translate(8573.746 7477.816)" fill="#fff"/>
      <path id="Path_1058" data-name="Path 1058" d="M4188.5,135.51S1375.639,2090.949,1361.328,3327.846c0,0,168.345,500.538,31.565,1174.329l67.614,222.774s97.083-856.583,243.821-1014.545C1704.328,3710.4,709.141,2941.78,4188.5,135.51Z" transform="translate(9572.15 8126.463)" fill="#fff"/>
      <path id="Path_1059" data-name="Path 1059" d="M1421.067,615.63s-259.526,876.223,284.222,1682.3l113.627-70.844S1401.992,1284.23,1504.26,715.373,1421.067,615.63,1421.067,615.63Z" transform="translate(9543.975 12013.008)" fill="#fff"/>
      <path id="Path_1060" data-name="Path 1060" d="M1797.175,360.8,547.372,9931.775a530.139,530.139,0,0,0,525.647,598.739H2906.412L1872.788,326.29Z" transform="translate(-1090.645 10612.049)" fill="#02a698"/>
      <path id="Path_1061" data-name="Path 1061" d="M1152.885,328.75,593.425,9838.278a623.012,623.012,0,0,0,622.028,659.345l2734.3,0Z" transform="translate(-446.354 10644.1)" fill="#00d4a1"/>
      <path id="Path_1062" data-name="Path 1062" d="M630.819,334.28,902.834,9766.23A623.148,623.148,0,0,0,1525,10425.571H4259.162Z" transform="translate(54.668 10716.146)" fill="#02a698"/>
      <path id="Path_1063" data-name="Path 1063" d="M13619.32,10536.735H2838.244c-269.179,0-499.927-192.363-548.372-457.169L649.509,1108.292a663.271,663.271,0,0,1,652.75-782.512H11956.38c269.258,0,499.96,192.439,548.243,457.262l1663.35,9096.036a557.491,557.491,0,0,1-548.652,657.66Z" transform="translate(157.324 10605.404)" fill="#fff"/>
      <path id="Path_1064" data-name="Path 1064" d="M967.058,2273.5H12888.517L12582.829,579.7a308.626,308.626,0,0,0-303.718-253.917H731.8a101.145,101.145,0,0,0-99.462,119.244Z" transform="translate(53.148 10605.404)" fill="#002964"/>
      <path id="Path_1065" data-name="Path 1065" d="M1154.649,289.972c-285.3.232-516.563,231.374-516.949,516.672h99.32c0-212.831,159.945-391.581,371.4-415.134,211.375-23.58,406.757,115.56,453.611,323.1s-69.806,417.121-270.882,486.659a410.649,410.649,0,0,1-112.228,22.445v99.322a508.918,508.918,0,0,0,132.148-23.568c243.935-76.3,395.461-319.456,356.484-572.059S1410.8,288.633,1155.212,289.412Z" transform="translate(144.305 10131.555)" fill="#3662c1"/>
      <path id="Path_1066" data-name="Path 1066" d="M894.343,463.461a115.155,115.155,0,0,1-3.929,29.741A112.225,112.225,0,1,1,871.057,395,110.817,110.817,0,0,1,894.343,463.461Z" transform="translate(564.396 10937.82)" fill="#3662c1"/>
      <path id="Path_1067" data-name="Path 1067" d="M1286.613,289.974c-285.277.231-516.5,231.4-516.814,516.671h99.182c0-212.756,159.909-391.494,371.332-415.078,211.4-23.591,406.772,115.507,453.657,323.009s-69.7,417.092-270.72,486.693a413.854,413.854,0,0,1-112.232,22.445v99.322a506.858,506.858,0,0,0,132.009-23.568c243.913-76.293,395.436-319.409,356.5-571.99S1542.877,288.7,1287.312,289.412Z" transform="translate(1865.374 10131.555)" fill="#3662c1"/>
      <path id="Path_1068" data-name="Path 1068" d="M1026.465,463.71a115.272,115.272,0,0,1-4.072,29.739,112.215,112.215,0,1,1,4.072-29.739Z" transform="translate(2284.884 10937.57)" fill="#3662c1"/>
      <path id="Path_1069" data-name="Path 1069" d="M1418.7,289.972c-285.243.31-516.423,231.427-516.811,516.672h99.745c0-212.757,159.909-391.494,371.329-415.078,211.4-23.591,406.772,115.506,453.657,323.01s-69.693,417.089-270.72,486.691a412.858,412.858,0,0,1-112.931,22.445v99.322a510.039,510.039,0,0,0,132.148-23.567c243.939-76.3,395.465-319.455,356.485-572.058s-256.748-438.776-512.34-438Z" transform="translate(3586.316 10131.555)" fill="#3662c1"/>
      <path id="Path_1070" data-name="Path 1070" d="M1160.67,464.419a115.22,115.22,0,0,1-3.929,29.741,113.35,113.35,0,1,1,3.929-29.741Z" transform="translate(4004.131 10936.861)" fill="#3662c1"/>
      <path id="Path_1071" data-name="Path 1071" d="M1550.53,289.974c-285.167.386-516.223,231.5-516.53,516.671h99.182c0-230.65,186.977-417.63,417.629-417.63S1968.44,576,1968.44,806.645a412.277,412.277,0,0,1-21.465,132.288,418.46,418.46,0,0,1-259.666,262.336,410.938,410.938,0,0,1-112.232,22.445v99.322a508,508,0,0,0,132.012-23.568c243.937-76.3,395.459-319.458,356.482-572.06s-256.748-438.774-512.34-438Z" transform="translate(5307.516 10131.554)" fill="#3662c1"/>
      <path id="Path_1072" data-name="Path 1072" d="M1289.123,462.825a115.4,115.4,0,0,1-4.072,29.74,111.378,111.378,0,1,1,4.072-29.741Z" transform="translate(5728.851 10938.455)" fill="#3662c1"/>
      <path id="Path_1073" data-name="Path 1073" d="M1682.88,289.975c-285.243.31-516.423,231.428-516.811,516.672h99.182c0-212.829,159.947-391.581,371.4-415.133,211.376-23.582,406.757,115.559,453.611,323.1s-69.806,417.12-270.88,486.659a411.773,411.773,0,0,1-112.229,22.445v99.323a506.808,506.808,0,0,0,132.006-23.568c244.322-75.937,396.271-319.249,357.291-572.113s-257.157-439.115-513-437.943Z" transform="translate(7028.198 10131.552)" fill="#3662c1"/>
      <path id="Path_1074" data-name="Path 1074" d="M1422.765,463.713a109.669,109.669,0,0,1-4.068,29.74,112.23,112.23,0,1,1,4.068-29.74Z" transform="translate(7448.099 10937.568)" fill="#3662c1"/>
      <path id="Path_1075" data-name="Path 1075" d="M1815.1,289.974c-285.3.231-516.565,231.372-516.953,516.671h99.179c0-230.651,186.979-417.63,417.632-417.63s417.623,186.979,417.623,417.63a412.288,412.288,0,0,1-21.459,132.288,418.465,418.465,0,0,1-259.669,262.336,409.841,409.841,0,0,1-112.226,22.445v99.322a506.858,506.858,0,0,0,132.006-23.568c243.91-76.293,395.433-319.409,356.493-571.989S2071.084,288.7,1815.519,289.412Z" transform="translate(8749.008 10131.555)" fill="#3662c1"/>
      <path id="Path_1076" data-name="Path 1076" d="M1554.853,463.231a115.215,115.215,0,0,1-3.929,29.741,112.219,112.219,0,1,1,3.929-29.741Z" transform="translate(9169.039 10938.051)" fill="#3662c1"/>
      <path id="Path_1077" data-name="Path 1077" d="M1946.929,289.972c-285.222.31-516.356,231.45-516.669,516.672h99.182c0-230.651,186.98-417.63,417.626-417.63s417.638,186.98,417.638,417.63a412.375,412.375,0,0,1-21.61,132.289,418.6,418.6,0,0,1-259.529,262.333,412.858,412.858,0,0,1-112.226,22.445v99.322a506.867,506.867,0,0,0,132.009-23.567c243.939-76.3,395.465-319.456,356.484-572.06S2203.083,288.633,1947.5,289.412Z" transform="translate(10470.205 10131.555)" fill="#3662c1"/>
      <path id="Path_1078" data-name="Path 1078" d="M1686.958,463.712a115.761,115.761,0,0,1-4.066,29.74,112.238,112.238,0,1,1,4.066-29.74Z" transform="translate(10890.109 10937.568)" fill="#3662c1"/>
      <path id="Path_1079" data-name="Path 1079" d="M1956.975,1486.179H1353.75a161.468,161.468,0,0,1-151.088-126.256L1086.368,756.7c-14.027-70.143,32.543-126.257,102.265-126.257h603.231A161.609,161.609,0,0,1,1942.951,756.7l116.295,603.227C2072.574,1429.225,2026.556,1486.179,1956.975,1486.179Z" transform="translate(5957.275 14574.682)" fill="#00d4a1"/>
      <path id="Path_1080" data-name="Path 1080" d="M2065.376,1486.179H1462.148a161.465,161.465,0,0,1-151.088-126.256L1194.763,756.7c-14.03-70.143,32.685-126.257,102.271-126.257h603.225A161.477,161.477,0,0,1,2051.352,756.7l116.292,603.227C2181.111,1429.225,2135.1,1486.179,2065.376,1486.179Z" transform="translate(7369.576 14574.682)" fill="#00d4a1"/>
      <path id="Path_1081" data-name="Path 1081" d="M2173.65,1486.179H1570.424a161.607,161.607,0,0,1-151.088-126.256L1303.178,756.7c-14.027-70.143,32.543-126.257,102.129-126.257h603.225A161.465,161.465,0,0,1,2159.62,756.7l116.3,603.227C2289.388,1429.225,2243.372,1486.179,2173.65,1486.179Z" transform="translate(8781.994 14574.682)" fill="#02a698"/>
      <path id="Path_1082" data-name="Path 1082" d="M1630.469,1486.179H1028.644a161.61,161.61,0,0,1-151.23-126.256L761.259,756.7c-14.03-70.143,32.546-126.257,102.129-126.257h603.225A161.331,161.331,0,0,1,1617.7,756.7L1734,1359.923C1746.2,1429.225,1700.191,1486.179,1630.469,1486.179Z" transform="translate(1721.565 14574.682)" fill="#00d4a1"/>
      <path id="Path_1083" data-name="Path 1083" d="M1122.257,904.1H863.293a70.144,70.144,0,0,1-64.952-54.432L748.4,590.7a43.767,43.767,0,0,1,43.907-54.428h258.97a70.14,70.14,0,0,1,64.952,54.428l50.641,258.971a43.768,43.768,0,0,1-44.612,54.43Z" transform="translate(1569.31 13347.498)" fill="#002964"/>
      <path id="Path_1084" data-name="Path 1084" d="M1739.519,1486.179H1136.992a161.319,161.319,0,0,1-151.085-126.256L869.61,756.7c-14.03-70.143,32.543-126.257,102.265-126.257H1575.1A161.607,161.607,0,0,1,1726.191,756.7l116.158,603.227C1855.254,1429.225,1809.241,1486.179,1739.519,1486.179Z" transform="translate(3133.207 14574.682)" fill="#00d4a1"/>
      <path id="Path_1085" data-name="Path 1085" d="M1848.578,1486.179H1245.353a161.322,161.322,0,0,1-151.088-126.256L977.968,756.7c-14.03-70.143,32.546-126.257,102.268-126.257h603.226A161.612,161.612,0,0,1,1834.551,756.7l116.156,603.227C1964.876,1429.225,1918.161,1486.179,1848.578,1486.179Z" transform="translate(4544.981 14574.682)" fill="#00d4a1"/>
      <path id="Path_1086" data-name="Path 1086" d="M2282.051,1486.179H1678.82a161.609,161.609,0,0,1-151.088-126.256L1411.577,756.7c-14.03-70.143,32.549-126.257,102.132-126.257h603.222a161.338,161.338,0,0,1,151.1,126.257l116.292,603.227C2397.786,1429.225,2351.771,1486.179,2282.051,1486.179Z" transform="translate(10194.291 14574.682)" fill="#02a698"/>
      <path id="Path_1087" data-name="Path 1087" d="M1938.8,1392.879H1335.57a161.6,161.6,0,0,1-151.088-126.256L1068.182,663.4c-13.325-70.143,32.685-126.256,102.271-126.256h603.226A161.6,161.6,0,0,1,1924.765,663.4l116.3,603.228C2054.53,1335.922,2008.518,1392.879,1938.8,1392.879Z" transform="translate(5722.947 13359.119)" fill="#00d4a1"/>
      <path id="Path_1088" data-name="Path 1088" d="M2047.25,1392.879H1444.024a161.607,161.607,0,0,1-151.091-126.256L1176.778,663.4c-14.03-70.143,32.549-126.256,102.129-126.256h603.225A161.6,161.6,0,0,1,2033.22,663.4l116.3,603.227C2162.984,1335.922,2116.972,1392.879,2047.25,1392.879Z" transform="translate(7135.187 13359.119)" fill="#00d4a1"/>
      <path id="Path_1089" data-name="Path 1089" d="M2155.78,1392.879H1552.555a161.6,161.6,0,0,1-151.23-126.256L1285.167,663.4C1271.14,593.253,1317.709,537.14,1387.3,537.14h603.225A161.747,161.747,0,0,1,2141.75,663.4l116.158,603.228C2271.515,1335.922,2225.5,1392.879,2155.78,1392.879Z" transform="translate(8547.352 13359.119)" fill="#02a698"/>
      <path id="Path_1090" data-name="Path 1090" d="M2264.187,1392.879H1660.965a161.6,161.6,0,0,1-151.23-126.256L1393.577,663.4c-14.027-70.143,32.543-126.256,102.265-126.256h603.231A161.745,161.745,0,0,1,2250.161,663.4l116.158,603.228C2379.786,1335.922,2333.771,1392.879,2264.187,1392.879Z" transform="translate(9959.773 13359.119)" fill="#02a698"/>
      <path id="Path_1091" data-name="Path 1091" d="M1975.919,1585.071H1372.694a161.333,161.333,0,0,1-150.951-126.256L1105.448,855.587c-14.027-70.143,32.543-126.259,102.271-126.259h603.226a161.469,161.469,0,0,1,151.087,126.259l116.3,603.228C2091.654,1528.114,2045.642,1585.071,1975.919,1585.071Z" transform="translate(6205.86 15863.076)" fill="#00d4a1"/>
      <path id="Path_1092" data-name="Path 1092" d="M2083.8,1585.071H1481.272a161.322,161.322,0,0,1-151.088-126.256l-116.3-603.228c-14.024-70.143,32.546-126.259,102.268-126.259h603.231a161.751,161.751,0,0,1,151.085,126.256l116.161,603.231C2199.531,1528.114,2153.521,1585.071,2083.8,1585.071Z" transform="translate(7618.677 15863.076)" fill="#00d4a1"/>
      <path id="Path_1093" data-name="Path 1093" d="M2192.867,1585.071H1589.636a161.47,161.47,0,0,1-151.088-126.256L1322.257,855.587c-14.03-70.143,32.543-126.259,102.265-126.259H2027.75A161.763,161.763,0,0,1,2178.84,855.584L2295,1458.815C2308.321,1528.114,2263.01,1585.071,2192.867,1585.071Z" transform="translate(9030.58 15863.076)" fill="#02a698"/>
      <path id="Path_1094" data-name="Path 1094" d="M1650.869,1585.071H1047.641a161.464,161.464,0,0,1-151.088-126.256L780.259,855.587c-14.03-70.143,32.543-126.259,102.265-126.259h603.228a161.75,161.75,0,0,1,151.087,126.259l116.295,603.228C1766.181,1528.114,1721.012,1585.071,1650.869,1585.071Z" transform="translate(1969.108 15863.076)" fill="#00d4a1"/>
      <path id="Path_1095" data-name="Path 1095" d="M1759.245,1585.071H1156.016a161.6,161.6,0,0,1-151.088-126.256l-116.3-603.228C874.607,785.444,921.319,729.328,990.9,729.328H1594.13a161.611,161.611,0,0,1,151.088,126.259l116.295,603.228C1874.98,1528.114,1828.967,1585.071,1759.245,1585.071Z" transform="translate(3381.148 15863.076)" fill="#00d4a1"/>
      <path id="Path_1096" data-name="Path 1096" d="M1867.519,1585.071H1264.293a161.612,161.612,0,0,1-151.088-126.256L997.047,855.587c-14.027-70.143,32.549-126.259,102.129-126.259H1702.4a161.472,161.472,0,0,1,151.088,126.259l116.3,603.228C1982.833,1528.114,1937.241,1585.071,1867.519,1585.071Z" transform="translate(4793.567 15863.076)" fill="#00d4a1"/>
      <path id="Path_1097" data-name="Path 1097" d="M2301.082,1585.071H1697.857a161.463,161.463,0,0,1-151.085-126.256l-116.3-603.228c-13.328-70.143,32.549-126.259,102.274-126.259h603.225a161.742,161.742,0,0,1,151.085,126.259l116.3,603.228C2416.678,1528.114,2370.668,1585.071,2301.082,1585.071Z" transform="translate(10442.922 15863.076)" fill="#02a698"/>
      <path id="Path_1098" data-name="Path 1098" d="M1995.123,1683.963H1391.9A161.478,161.478,0,0,1,1240.81,1557.7L1124.515,954.476c-14.032-70.143,32.685-126.256,102.265-126.256h603.228A161.472,161.472,0,0,1,1981.1,954.476L2097.393,1557.7C2110.863,1627.006,2064.845,1683.963,1995.123,1683.963Z" transform="translate(6454.319 17151.465)" fill="#00d4a1"/>
      <path id="Path_1099" data-name="Path 1099" d="M2103.4,1683.963H1500.172A161.615,161.615,0,0,1,1349.085,1557.7L1232.927,954.476c-14.027-70.143,32.545-126.256,102.129-126.256h603.228a161.461,161.461,0,0,1,151.085,126.256l116.3,603.228C2219.133,1627.006,2173.117,1683.963,2103.4,1683.963Z" transform="translate(7866.742 17151.465)" fill="#00d4a1"/>
      <path id="Path_1100" data-name="Path 1100" d="M2211.8,1683.963H1608.57A161.614,161.614,0,0,1,1457.486,1557.7L1341.327,954.476c-14.03-70.143,32.543-126.256,102.129-126.256h603.225a161.331,161.331,0,0,1,151.093,126.256L2314.066,1557.7C2327.533,1627.006,2281.1,1683.963,2211.8,1683.963Z" transform="translate(9279.037 17151.465)" fill="#02a698"/>
      <path id="Path_1101" data-name="Path 1101" d="M1669.27,1683.963H1066.743a161.335,161.335,0,0,1-151.091-126.256L799.358,954.476c-14.03-70.143,32.546-126.256,102.268-126.256h603.225a161.608,161.608,0,0,1,151.088,126.256L1772.1,1557.7C1785,1627.006,1738.708,1683.963,1669.27,1683.963Z" transform="translate(2217.953 17151.465)" fill="#00d4a1"/>
      <path id="Path_1102" data-name="Path 1102" d="M1778.328,1683.963H1175.1a161.337,161.337,0,0,1-151.091-126.256L907.717,954.476c-14.027-70.143,32.548-126.256,102.268-126.256h603.228A161.6,161.6,0,0,1,1764.3,954.476L1880.457,1557.7C1893.924,1627.006,1847.911,1683.963,1778.328,1683.963Z" transform="translate(3629.727 17151.465)" fill="#002964"/>
      <path id="Path_1103" data-name="Path 1103" d="M1886.729,1683.963H1283.5A161.479,161.479,0,0,1,1132.413,1557.7L1016.118,954.476c-14.03-70.143,32.546-126.256,102.268-126.256h603.225A161.606,161.606,0,0,1,1872.7,954.476L1989,1557.7C2002.327,1627.006,1956.309,1683.963,1886.729,1683.963Z" transform="translate(5042.022 17151.465)" fill="#00d4a1"/>
      <path id="Path_1104" data-name="Path 1104" d="M2320.328,1683.963H1717.1a161.334,161.334,0,0,1-151.085-126.256L1449.72,954.476c-14.036-70.143,32.542-126.256,102.268-126.256h603.225a161.609,161.609,0,0,1,151.23,126.256L2422.6,1557.7C2436.063,1627.006,2390.053,1683.963,2320.328,1683.963Z" transform="translate(10691.195 17151.465)" fill="#02a698"/>
      <path id="Path_1105" data-name="Path 1105" d="M2013.131,1777.269H1409.906a161.609,161.609,0,0,1-151.091-126.259l-116.3-603.225c-14.027-70.143,32.549-126.256,102.271-126.256h603.225A161.6,161.6,0,0,1,1999.1,1047.785L2115.26,1651.01C2128.724,1720.173,2082.712,1777.269,2013.131,1777.269Z" transform="translate(6688.827 18367.162)" fill="#00d4a1"/>
      <path id="Path_1106" data-name="Path 1106" d="M2121.532,1777.269H1518.3a161.6,161.6,0,0,1-151.085-126.259l-116.3-603.225c-14.027-70.143,32.543-126.256,102.268-126.256h603.228A161.6,161.6,0,0,1,2107.5,1047.785l116.3,603.225C2237.267,1720.173,2191.249,1777.269,2121.532,1777.269Z" transform="translate(8101.121 18367.162)" fill="#00d4a1"/>
      <path id="Path_1107" data-name="Path 1107" d="M2229.927,1777.269H1626.7a161.75,161.75,0,0,1-151.088-126.259l-116.3-603.225c-14.03-70.143,32.685-126.256,102.271-126.256h603.222A161.464,161.464,0,0,1,2215.9,1047.785l116.3,603.225C2345.662,1720.173,2299.226,1777.269,2229.927,1777.269Z" transform="translate(9513.424 18367.162)" fill="#02a698"/>
      <path id="Path_1108" data-name="Path 1108" d="M1687.791,1777.269H1084.562A161.75,161.75,0,0,1,933.475,1651.01L817.319,1047.785c-14.03-70.143,32.546-126.256,102.129-126.256h603.228a161.321,161.321,0,0,1,151.085,126.256l116.3,603.225C1803.525,1720.173,1757.231,1777.269,1687.791,1777.269Z" transform="translate(2451.945 18367.162)" fill="#00d4a1"/>
      <path id="Path_1109" data-name="Path 1109" d="M1796.323,1777.269H1193.092a161.748,161.748,0,0,1-151.227-126.259L925.71,1047.785c-14.03-70.143,32.546-126.256,102.268-126.256H1630.5a161.6,161.6,0,0,1,151.227,126.256l116.158,603.225C1912.058,1720.173,1866.042,1777.269,1796.323,1777.269Z" transform="translate(3864.106 18367.162)" fill="#00d4a1"/>
      <path id="Path_1110" data-name="Path 1110" d="M1904.731,1777.269H1301.506a161.467,161.467,0,0,1-151.088-126.256l-116.3-603.228c-14.027-70.143,32.548-126.256,102.271-126.256h603.228A161.6,161.6,0,0,1,1890.7,1047.785l116.161,603.225C2020.33,1720.173,1974.314,1777.269,1904.731,1777.269Z" transform="translate(5276.532 18367.162)" fill="#00d4a1"/>
      <path id="Path_1111" data-name="Path 1111" d="M2426.126,624.344H829.955a42.926,42.926,0,0,1-42.785-42.088h0a42.923,42.923,0,0,1,42.785-42.784l1596.171,0a42.93,42.93,0,0,1,42.785,42.789v0A42.925,42.925,0,0,1,2426.126,624.344Z" transform="translate(2091.68 13389.475)" fill="#6d89cf"/>
      <path id="Path_1112" data-name="Path 1112" d="M2429.354,637.471H832.766a42.927,42.927,0,0,1-42.086-42.085h0A42.928,42.928,0,0,1,832.766,553.3H2429.354a42.929,42.929,0,0,1,42.086,42.086h0A42.928,42.928,0,0,1,2429.354,637.471Z" transform="translate(2137.409 13569.658)" fill="#6d89cf"/>
      <path id="Path_1113" data-name="Path 1113" d="M1367.112,594.4H818.735a81.925,81.925,0,0,1-81.647-81.5h0a81.929,81.929,0,0,1,81.65-81.647h548.374a81.928,81.928,0,0,1,81.647,81.647h0a81.926,81.926,0,0,1-81.644,81.506Z" transform="translate(1439.211 11979.525)" fill="#fff"/>
      <path id="Path_1114" data-name="Path 1114" d="M1473.719,594.4H925.765A81.789,81.789,0,0,1,844.258,512.9h0a81.791,81.791,0,0,1,81.507-81.647h547.953a81.789,81.789,0,0,1,81.507,81.647h0a81.787,81.787,0,0,1-81.5,81.506Z" transform="translate(2835.482 11979.525)" fill="#fff"/>
      <path id="Path_1115" data-name="Path 1115" d="M1580.23,594.4H1033.118a81.926,81.926,0,0,1-81.647-81.5h0a81.93,81.93,0,0,1,81.65-81.647H1580.23a81.927,81.927,0,0,1,81.644,81.647h0A81.921,81.921,0,0,1,1580.23,594.4Z" transform="translate(4232.27 11979.525)" fill="#fff"/>
      <path id="Path_1116" data-name="Path 1116" d="M1687.388,594.4H1140.276a81.927,81.927,0,0,1-81.647-81.5h0a81.932,81.932,0,0,1,81.647-81.647h547.112a81.932,81.932,0,0,1,81.65,81.647h0A81.933,81.933,0,0,1,1687.388,594.4Z" transform="translate(5628.41 11979.525)" fill="#fff"/>
      <path id="Path_1117" data-name="Path 1117" d="M1795.211,594.4H1247.257A81.787,81.787,0,0,1,1165.75,512.9h0a81.791,81.791,0,0,1,81.507-81.647h547.953a81.785,81.785,0,0,1,81.507,81.647h0A81.783,81.783,0,0,1,1795.211,594.4Z" transform="translate(7024.024 11979.525)" fill="#fff"/>
      <path id="Path_1118" data-name="Path 1118" d="M1902.372,594.4H1354.416a81.787,81.787,0,0,1-81.507-81.506h0a81.927,81.927,0,0,1,81.507-81.647h547.956a81.787,81.787,0,0,1,81.5,81.647h0A81.787,81.787,0,0,1,1902.372,594.4Z" transform="translate(8420.166 11979.525)" fill="#fff"/>
      <path id="Path_1119" data-name="Path 1119" d="M2008.882,594.4H1461.764a81.928,81.928,0,0,1-81.646-81.5h0a81.932,81.932,0,0,1,81.646-81.647h547.118a81.931,81.931,0,0,1,81.644,81.647h0A81.928,81.928,0,0,1,2008.882,594.4Z" transform="translate(9816.957 11979.525)" fill="#fff"/>
      <path id="Path_1120" data-name="Path 1120" d="M1452.953,1589.126c-121.068,0-209.167-38.438-257.143-112.229-92.031-142.95-20.906-343.277,211.266-595.512a2934.159,2934.159,0,0,1,369.372-332.337,17.536,17.536,0,0,1,20.627,28.057c-7.717,5.613-771.573,570.964-572.086,879.871,62.989,98.2,197.941,104.231,300.212,92.449,189.1-21.884,435.724-123.733,659.338-272.436,231.751-154.312,395.048-327.565,447.936-476.127q52.177-147.3-31.844-205.239c-72.248-49.942-223.2-49.942-403.608,0C2024.057,643.46,1850.1,729.457,1742.92,820.08a17.535,17.535,0,1,1-22.584-26.654c110.825-93.851,289.83-182.37,467.292-231.612,193.174-53.448,350.714-51.624,432.778,5.052,48.539,33.529,95.676,103.389,45.032,245.78-56.116,155.437-223.611,335.421-461.539,493.384-228.385,151.649-480.76,255.6-675.053,278.186a670.351,670.351,0,0,1-75.893,4.909Z" transform="translate(6907.831 13174.938)" fill="#ed6966"/>
      <path id="Path_1121" data-name="Path 1121" d="M1824.715,963.241l-62.284-117.279s31-209.164-231.05-341.453c0,0-95.815-39-149.826,39.138-49.806,71.968,94.972,58.922,87.113,182.372s50.647,195.278,132.012,235.4l67.2,77.858Z" transform="translate(9699.506 12807.18)" fill="#fc9290"/>
      <path id="Path_1122" data-name="Path 1122" d="M4113.07,545.958S3888.612,1650.285,2650.031,2011.1C2263.4,2123.328,1385.5,851.36,1385.5,851.36s30.861-117.42,224.458-90.345c0,0,854.9,565.912,962.636,627.355,95.4,54.57,723.449-701.426,1010.052-823.194A731.328,731.328,0,0,1,4113.07,545.958Z" transform="translate(9887.051 12943.893)" fill="#00d4a1"/>
      <rect id="Rectangle_1493" data-name="Rectangle 1493" width="271.452" height="1365.646" transform="matrix(-0.181, -0.984, 0.984, -0.181, 10448.734, 13814.145)" fill="#ed6966"/>
      <path id="Path_1123" data-name="Path 1123" d="M1301.3,698.81l338.09,75.895-49.524-267.946Z" transform="translate(8790.047 12963.313)" fill="#fc9290"/>
      <path id="Path_1124" data-name="Path 1124" d="M1591.039,562.009l15.712,84.171a95.951,95.951,0,0,1-76.876,112.228l-62.284,11.5L1417.93,501.966l67.759-12.487a90.34,90.34,0,0,1,105.353,72.529Z" transform="translate(10309.564 12718.396)" fill="#fc9290"/>
      <path id="Path_1125" data-name="Path 1125" d="M2201.962,1065.278s154.321,140.283,123.733,239.885-168.339,165.958-187.421,287.728-93.574,188.122-161.049,188.122h-321.39s-49.664-85.715,70.137-112.229,165.12-168.342,157.685-301.613a2326.143,2326.143,0,0,1,11.222-309.895l254.762-59.056Z" transform="translate(13276.201 19366.316)" fill="#060632"/>
      <path id="Path_1126" data-name="Path 1126" d="M2389.389,1143.606s28.054,319.009-39.844,352.117l-862.894-1.685s0-99.6,138.6-121.767,382.137-103.251,423.24-284.083S2389.389,1143.606,2389.389,1143.606Z" transform="translate(11204.885 19650.629)" fill="#060632"/>
      <path id="Path_1127" data-name="Path 1127" d="M1499,779.686s45.453,559.038,99.043,1231.287c72.671,912.978,160.069,2034.14,168.345,2247.091,14.871,368.951,74.91,959.135,74.91,959.135s142.391,140.28,427.167,81.082c0,0,253.637-842.554,326.163-1733.928l3.37-44.049c67.481-907.364,172.271-2818.194,172.271-2818.194Z" transform="translate(11365.793 15508.436)" fill="#002964"/>
      <path id="Path_1128" data-name="Path 1128" d="M1499,779.686s45.453,559.038,99.043,1231.287l997.014,1553.38,3.364-44.049c67.475-907.364,172.271-2818.194,172.271-2818.194Z" transform="translate(11365.793 15508.436)" fill="#00265d"/>
      <path id="Path_1129" data-name="Path 1129" d="M1513.859,1051.5s820.387,2025.02,1359.786,2976.717,708.022,1217.255,708.022,1217.255,308.625-121.625,336.684-204.678c0,0-206.218-1837.738-567.452-2285.108-204.112-252.514-444-1012.581-455.226-1278.141s-72.944-791.21-72.944-791.21Z" transform="translate(11559.395 15302.977)" fill="#002964"/>
      <path id="Path_1130" data-name="Path 1130" d="M2403.515,1114.108s-555.1,267.806-875.1,168.342a753.9,753.9,0,0,1,216.6-173.252c-11.089-64.252-19.644-119.946-24.556-167.223a1538.672,1538.672,0,0,1-14.03-170.866l214.216-168.344L2124.069,442C2108.073,894.7,2403.515,1114.108,2403.515,1114.108Z" transform="translate(11749.092 12119.582)" fill="#fc9290"/>
      <path id="Path_1131" data-name="Path 1131" d="M1506.786,3708.555a50.361,50.361,0,0,0,33.384,13.189c120.508-2.387,471.361,64.25,767.789,33.948,251.108-24.268,472.759-96.937,710.26-201.028,31.986-14.03,104.791-53.45,103.393-87.257-1.264-38.861-4.912-93.432-9.819-163.712-9.964-138.463-23.849-335.145-28.059-568.159-3.364-172.833-1.4-365.724,11.083-569.84,0-14.028,1.4-28.057,1.966-42.085,3.642-74.772,5.33-150.247,5.33-224.456a3887.622,3887.622,0,0,0-50.22-666.5C2991.429,881.1,2878.218,606,2710.853,483.534c-22.161-16.975-160.063,49.661-288.006,111.527A533.074,533.074,0,0,1,2078.17,636.3l-110.689,96.938c-134.254,122.329-281.975,290.811-347.205,545.429-54.147,215.758-86.133,605.893-103.393,1010.757-8.555,184.2-14.024,368.389-17.109,544.028v6.032c-1.4,18.236-1.4,36.474-1.4,54.711C1492.049,3344.8,1498.086,3702.524,1506.786,3708.555Z" transform="translate(11323.498 12625.723)" fill="#00d4a1"/>
      <path id="Path_1132" data-name="Path 1132" d="M1962,465.385S1821.719,721.124,1555.178,792.67a1540.14,1540.14,0,0,1-14.03-170.868l214.216-168.343Z" transform="translate(11914.941 12268.891)" fill="#ea8888"/>
      <path id="Path_1133" data-name="Path 1133" d="M1630.106,1266.57s529.58,86.556,579.243-238.485S2360.857,495,2024.869,424.857s-420.851,45.312-464.2,150.106S1493.608,1235.708,1630.106,1266.57Z" transform="translate(11728.207 11616.686)" fill="#fc9290"/>
      <path id="Path_1134" data-name="Path 1134" d="M2560.8,569.162c4.768-5.471,15.851-9.96,40.541-11.362a98.166,98.166,0,0,0-46.01-12.906c-5.191-34.371-23.431-95.114-82.491-109.845a74.382,74.382,0,0,1,35.913,53.449c-68.455-70.141-215.057-121.488-620.9-89.362-534.77,42.086-358.573,384.663-289.271,425.485s243.539-71.124,372.6-60.883,153.469,196.4,197.24,222.213,26.517-19.641,85.715-46.435,64.952,71.406,47.836,135.235,64.25,147.86,64.25,147.86l82.207-88.521c82.207-88.519,159.645-463.642,122.329-543.6C2567.392,583.471,2564.167,576.317,2560.8,569.162Z" transform="translate(11569.223 11433.523)" fill="#0b0b36"/>
      <path id="Path_1135" data-name="Path 1135" d="M1550.7,717.947s18.238-71.965-31.7-104.372-95.815-120.225-116.857-108.3c-43.629,24.549,23.846,101.425,11.5,196.4C1409.295,735.9,1487.433,824.424,1550.7,717.947Z" transform="translate(9910.109 12929.582)" fill="#fc9290"/>
      <path id="Path_1136" data-name="Path 1136" d="M1910.121,1653.627c-3.364-172.833-1.4-365.724,11.089-569.839,0-14.03,1.4-28.058,1.966-42.086-50.22-249.288-126.262-470.658-238.488-477.812C1684.683,564.449,1350.806,1089.26,1910.121,1653.627Z" transform="translate(12496.824 13707.633)" fill="#08a881"/>
      <path id="Path_1137" data-name="Path 1137" d="M1957.27,757.752s-28.06,270.608-58.363,321.812-160.48,214.639-215.9,246.764,33.813-215.477,22.445-263.734-45.586,87.957-70.143,91.185-18.234-119.244-19.075-163.855,118.821-154.314,160.9-249.57S1957.27,757.752,1957.27,757.752Z" transform="translate(12891.297 15508.352)" fill="#fc9290"/>
      <path id="Path_1138" data-name="Path 1138" d="M1816.893,480.93s335.135,158.662,495.767,402.619c249.142,378.772,537.989,1757.215,543.325,1884.875s-210.428,1029.135-210.428,1029.135-219.268-14.03-275.8-125.134c0,0,43.771-925.885,16.135-985.646S1471.927,1444.27,1572.235,1191.9,1816.893,480.93,1816.893,480.93Z" transform="translate(12216.893 12626.783)" fill="#00d4a1"/>
      <path id="Path_1139" data-name="Path 1139" d="M1474.556,512.229l17.675,158.1L1301.3,627.545Z" transform="translate(8790.047 13034.576)" fill="#ed6966"/>
      <path id="Path_1140" data-name="Path 1140" d="M2741.563,2048.982H1775.978c-51.763-43.91,35.773-143.51,127.236-150.244a569.518,569.518,0,0,1,147.442,17.394c13.183-176.476,89.085-969.793,375.119-937.949,321.535,35.773,0,349.452-90.906,535.191-67.336,137.478-138.319,334.721-170.862,427.871,26.093,5.611,53.167,11.223,80.8,16.274,42.083-130.887,201.172-570.961,402.761-545.43,236.8,30.02,141.683,206.5-26.093,311.29-123.176,77.018-274.4,186.582-346.231,239.471A1020.753,1020.753,0,0,0,2464.078,1978C2629.47,1974.069,2710.273,2022.75,2741.563,2048.982Z" transform="translate(14773.268 19093.158)" fill="#16427f"/>
      <path id="Path_1141" data-name="Path 1141" d="M730.138,1928.694c-51.2-80.385-205.1-288.989-410.335-261.353-223.475,30.023,246.9,177.462,390.835,262.052a240.208,240.208,0,0,1-79.682-9.4c-96.235-34.227-261.071,31.565-313.818,54.573h916.485a145.186,145.186,0,0,0-65.514-84.172c-15.011-9.26-45.312-10.521-84.171-7.574,54.431-64.253,92.308-269.348-59.48-216.6-110.825,38.58-110.4,163.992-99.6,238.488l-71.125,10.8c-45.592-232.595-206.921-914.1-534.066-932.2-331.635-18.519,281.272,706.755,485.247,938.648C778.677,1925.328,753.426,1927.572,730.138,1928.694Z" transform="translate(-5256.957 19167.57)" fill="#16427f"/>
      <path id="Path_1142" data-name="Path 1142" d="M28712.643,1128.755H38.158A38.159,38.159,0,0,1,0,1090.6H0A38.3,38.3,0,0,1,38.158,1053H28712.5a38.3,38.3,0,0,1,38.162,38.157h-.006A38.158,38.158,0,0,1,28712.643,1128.755Z" transform="translate(-8164 20080.025)" fill="#060632"/>
    </g>
  </g>
</svg>
