<?xml version="1.0" encoding="UTF-8"?>
<!DOCTYPE svg PUBLIC "-//W3C//DTD SVG 1.1//EN" "http://www.w3.org/Graphics/SVG/1.1/DTD/svg11.dtd">
<!-- Creator: CorelDRAW X8 -->
<svg xmlns="http://www.w3.org/2000/svg" xml:space="preserve" width="210mm" height="297mm" version="1.1" style="shape-rendering:geometricPrecision; text-rendering:geometricPrecision; image-rendering:optimizeQuality; fill-rule:evenodd; clip-rule:evenodd"
viewBox="0 0 21000 29700"
 xmlns:xlink="http://www.w3.org/1999/xlink">
 <defs>
  <style type="text/css">
   <![CDATA[
    .fil4 {fill:none;fill-rule:nonzero}
    .fil25 {fill:#FEFEFE;fill-rule:nonzero}
    .fil19 {fill:#002964;fill-rule:nonzero}
    .fil22 {fill:#002964;fill-rule:nonzero}
    .fil0 {fill:#004C71;fill-rule:nonzero}
    .fil2 {fill:#004C71;fill-rule:nonzero}
    .fil17 {fill:#00887E;fill-rule:nonzero}
    .fil15 {fill:#00887E;fill-rule:nonzero}
    .fil14 {fill:#00AC9D;fill-rule:nonzero}
    .fil11 {fill:#00D4A1;fill-rule:nonzero}
    .fil23 {fill:#021F47;fill-rule:nonzero}
    .fil21 {fill:#021F47;fill-rule:nonzero}
    .fil3 {fill:#02A698;fill-rule:nonzero}
    .fil1 {fill:#038F83;fill-rule:nonzero}
    .fil5 {fill:#038F83;fill-rule:nonzero}
    .fil10 {fill:#1A2E35;fill-rule:nonzero}
    .fil18 {fill:#375A64;fill-rule:nonzero}
    .fil16 {fill:#5E5E5E;fill-rule:nonzero}
    .fil8 {fill:#E1E1E1;fill-rule:nonzero}
    .fil9 {fill:#ECECEC;fill-rule:nonzero}
    .fil7 {fill:whitesmoke;fill-rule:nonzero}
    .fil12 {fill:#FAFAFA;fill-rule:nonzero}
    .fil13 {fill:#FF4F5B;fill-rule:nonzero}
    .fil24 {fill:#FF9B6C;fill-rule:nonzero}
    .fil20 {fill:#FFC09D;fill-rule:nonzero}
    .fil6 {fill:white;fill-rule:nonzero}
   ]]>
  </style>
 </defs>
 <g id="Layer_x0020_1">
  <metadata id="CorelCorpID_0Corel-Layer"/>
  <polygon class="fil0" points="11717,7719 11717,12379 5697,12379 5481,7752 "/>
  <polygon class="fil1" points="11500,12379 5481,12379 5481,7746 11500,7746 "/>
  <path class="fil2" d="M5503 12356l5974 0 0 -4587 -5974 0 0 4587zm6020 46l-6065 0 0 -4679 6065 0 0 4679z"/>
  <polygon class="fil3" points="10848,11770 6132,11770 6132,8222 10848,8222 "/>
  <path class="fil2" d="M10848 8222c0,0 -8,1 -23,1 -15,0 -38,0 -66,1 -59,0 -145,0 -257,1 -225,1 -552,2 -967,3 -830,1 -2007,3 -3403,5l11 -11c1,1064 1,2272 1,3547l0 1 -12 -12c1756,0 3384,1 4716,2l-10 10c2,-1072 4,-1958 5,-2576 1,-309 2,-552 3,-717 0,-83 1,-146 1,-189 0,-43 1,-66 1,-66 0,0 1,21 1,64 0,43 1,105 1,187 1,165 2,406 3,715 1,619 3,1507 5,2582l0 9 -10 0c-1332,1 -2960,2 -4716,3l-12 0 0 -12 0 -1c1,-1275 1,-2483 2,-3547l0 -11 10 1c1399,2 2579,4 3410,5 414,1 740,2 964,3 111,0 197,1 255,1 28,0 50,1 65,1 15,0 22,0 22,0z"/>
  <path class="fil2" d="M5481 7735c1,-2 40,22 101,63 61,41 145,99 235,166 91,67 171,130 227,177 57,48 90,79 88,81 -2,3 -39,-23 -98,-67 -66,-49 -144,-107 -231,-172 -86,-64 -165,-122 -231,-171 -58,-45 -93,-74 -91,-77z"/>
  <path class="fil2" d="M11500 7746c4,5 -139,116 -319,248 -180,131 -329,234 -333,228 -4,-5 139,-116 319,-247 180,-132 329,-234 333,-229z"/>
  <line class="fil4" x1="11500" y1="12379" x2="10824" y2= "11770" />
  <path class="fil2" d="M10824 11770c4,-5 159,127 346,296 187,168 334,309 330,313 -5,5 -159,-127 -346,-296 -187,-168 -335,-309 -330,-313z"/>
  <path class="fil2" d="M5481 12379c-5,-4 136,-139 314,-300 178,-161 326,-287 331,-282 4,5 -137,139 -315,300 -178,161 -326,287 -330,282z"/>
  <path class="fil5" d="M9628 9964c-66,307 -368,504 -675,438 -308,-65 -504,-367 -439,-675 66,-307 368,-504 675,-438 308,65 504,367 439,675z"/>
  <path class="fil2" d="M8886 10386c-6,-3 18,-61 50,-157 30,-96 67,-233 52,-383 -16,-150 -93,-272 -167,-336 -74,-66 -138,-79 -135,-87 0,-4 69,-2 155,63 85,63 173,193 191,355 16,162 -29,304 -67,398 -40,96 -74,149 -79,147z"/>
  <path class="fil2" d="M9621 9776c-3,14 -154,-41 -331,12 -178,51 -275,179 -285,169 -4,-3 13,-39 58,-85 44,-45 119,-99 214,-127 95,-28 187,-23 249,-9 63,15 97,35 95,40z"/>
  <path class="fil2" d="M9364 9748c-8,-1 -4,-40 -25,-96 -19,-55 -68,-128 -150,-160 -82,-32 -168,-12 -219,16 -53,27 -77,58 -83,54 -5,-3 11,-43 67,-81 52,-38 151,-68 251,-30 99,39 151,128 164,192 15,65 -1,106 -5,105z"/>
  <path class="fil2" d="M9182 9808c-12,-3 -3,-81 -26,-172 -21,-91 -64,-157 -54,-165 8,-8 73,52 97,155 25,102 -6,185 -17,182z"/>
  <path class="fil2" d="M9177 9629c-1,14 -49,16 -96,41 -48,26 -87,58 -96,48 -8,-7 15,-54 75,-87 64,-32 120,-12 117,-2z"/>
  <path class="fil5" d="M8267 9896c182,154 206,426 52,608 -153,183 -426,207 -608,53 -183,-153 -206,-426 -53,-608 154,-183 426,-206 609,-53z"/>
  <path class="fil2" d="M8285 10543c-4,3 -35,-34 -88,-89 -53,-54 -132,-128 -238,-171 -105,-43 -215,-35 -284,-9 -70,26 -102,64 -107,60 -2,-2 24,-47 98,-82 72,-34 191,-47 306,-1 114,47 193,128 243,187 49,61 73,103 70,105z"/>
  <path class="fil2" d="M8139 9834c8,6 -83,88 -111,226 -29,137 22,248 12,251 -3,1 -21,-23 -36,-70 -15,-45 -24,-115 -9,-188 16,-74 51,-134 83,-170 32,-37 58,-52 61,-49z"/>
  <path class="fil2" d="M8028 9996c-3,4 -28,-12 -73,-18 -44,-7 -110,0 -161,44 -50,43 -68,108 -68,152 0,45 12,72 7,75 -3,2 -24,-23 -30,-74 -7,-49 8,-126 69,-179 62,-52 140,-55 188,-41 49,13 70,38 68,41z"/>
  <path class="fil2" d="M8003 10139c-6,7 -55,-27 -124,-44 -69,-19 -128,-13 -130,-22 -3,-9 61,-31 138,-11 78,20 123,71 116,77z"/>
  <path class="fil2" d="M7882 10078c8,6 -7,39 -7,80 0,40 8,78 -2,81 -8,3 -31,-30 -32,-82 1,-54 35,-84 41,-79z"/>
  <path class="fil5" d="M8285 9748c-153,-100 -246,-277 -307,-449 -61,-172 -63,-363 -7,-537 168,75 304,220 367,393 64,172 26,427 -53,593z"/>
  <path class="fil6" d="M8107 9044c68,223 123,449 164,678l-164 -678z"/>
  <path class="fil2" d="M8271 9722c-3,1 -13,-37 -27,-98 -17,-71 -36,-152 -56,-240 -22,-89 -42,-169 -60,-240 -15,-61 -24,-99 -21,-100 4,-1 18,36 37,96 20,60 44,144 67,238 22,94 39,180 49,242 11,63 15,102 11,102z"/>
  <path class="fil5" d="M8671 10522c179,-37 370,22 535,100 164,79 301,213 384,375 -172,66 -370,59 -537,-18 -167,-77 -320,-283 -382,-457z"/>
  <path class="fil6" d="M9294 10894c-205,-110 -404,-231 -595,-364l595 364z"/>
  <path class="fil2" d="M8699 10530c2,-2 35,18 89,51 62,38 132,82 210,130 78,47 149,89 211,127 54,32 87,53 85,56 -1,3 -37,-13 -93,-41 -57,-29 -133,-72 -216,-122 -82,-50 -155,-99 -206,-136 -52,-37 -82,-62 -80,-65z"/>
  <path class="fil5" d="M8499 10607c32,104 9,221 -29,324 -37,102 -108,192 -200,250 -49,-98 -57,-216 -21,-320 36,-104 150,-207 250,-254z"/>
  <path class="fil6" d="M8314 10999c53,-128 114,-254 181,-375l-181 375z"/>
  <path class="fil2" d="M8495 10624c6,3 -35,87 -85,190 -50,104 -90,188 -96,185 -6,-2 24,-91 74,-195 51,-104 102,-183 107,-180z"/>
  <polygon class="fil7" points="20380,20298 12909,20298 12909,16852 20380,16852 "/>
  <path class="fil8" d="M13127 20089l7029 0 0 -3009 -7029 0 0 3009zm7075 47l-7122 0 0 -3102 7122 0 0 3102z"/>
  <polygon class="fil8" points="22205,20298 20380,20298 20380,16852 22205,16852 "/>
  <path class="fil8" d="M13104 17994l2401 0 3793 0 881 0c12,0 12,-19 0,-19l-2401 0 -3793 0 -881 0c-12,0 -12,19 0,19z"/>
  <path class="fil8" d="M16665 17984c21,-306 18,-629 2,-936 -1,-12 -18,-12 -19,0 -17,307 -19,630 2,936 1,9 14,10 15,0z"/>
  <path class="fil8" d="M18569 17516c0,54 -43,97 -96,97 -54,0 -97,-43 -97,-97 0,-53 43,-96 97,-96 53,0 96,43 96,96z"/>
  <path class="fil8" d="M14856 17516c0,54 -43,97 -97,97 -53,0 -96,-43 -96,-97 0,-53 43,-96 96,-96 54,0 97,43 97,96z"/>
  <path class="fil8" d="M16738 18585c0,53 -43,96 -97,96 -53,0 -96,-43 -96,-96 0,-54 43,-97 96,-97 54,0 97,43 97,97z"/>
  <polygon class="fil8" points="13803,20298 13418,22461 13634,22461 14343,20298 "/>
  <polygon class="fil8" points="19852,20298 20173,22465 19957,22465 19311,20298 "/>
  <polygon class="fil8" points="21296,20298 21660,22465 21444,22465 20755,20298 "/>
  <path class="fil8" d="M16731 19560c0,53 -43,96 -96,96 -53,0 -96,-43 -96,-96 0,-53 43,-97 96,-97 53,0 96,44 96,97z"/>
  <path class="fil8" d="M13104 19061l2401 0 3793 0 881 0c12,0 12,-19 0,-19l-2401 0 -3793 0 -881 0c-12,0 -12,19 0,19z"/>
  <polygon class="fil8" points="15867,15695 15864,15235 18123,15223 18125,15683 "/>
  <polygon class="fil7" points="15879,16856 15875,16142 18393,16128 18397,16843 "/>
  <path class="fil8" d="M17912 16838c-7,0 -12,-160 -12,-357 0,-198 5,-358 12,-358 7,0 12,160 12,358 0,197 -5,357 -12,357z"/>
  <path class="fil8" d="M18018 16838c-7,0 -13,-160 -13,-357 0,-198 6,-358 13,-358 6,0 12,160 12,358 0,197 -6,357 -12,357z"/>
  <path class="fil8" d="M16258 16838c-7,0 -12,-160 -12,-357 0,-198 5,-358 12,-358 7,0 12,160 12,358 0,197 -5,357 -12,357z"/>
  <path class="fil8" d="M16364 16838c-7,0 -12,-160 -12,-357 0,-198 5,-358 12,-358 6,0 12,160 12,358 0,197 -6,357 -12,357z"/>
  <path class="fil8" d="M16595 16492c0,-7 254,-12 567,-12 313,0 567,5 567,12 0,7 -254,13 -567,13 -313,0 -567,-6 -567,-13z"/>
  <polygon class="fil9" points="16236,16141 16233,15681 19340,15664 19342,16124 "/>
  <path class="fil8" d="M18897 16067c-81,0 -146,-66 -146,-148 0,-83 65,-149 146,-149 82,0 147,66 147,149 0,82 -65,148 -147,148z"/>
  <polygon class="fil8" points="16414,15873 18494,15873 18494,15965 16414,15965 "/>
  <path class="fil10" d="M3750 17307l0 -469c0,-31 25,-56 56,-56l21 0c31,0 56,25 56,56l0 22 348 0 0 119 -343 0 0 328 -138 0z"/>
  <path class="fil11" d="M4198 18889l-758 0c-45,0 -81,-36 -81,-81l0 -1326c0,-45 36,-81 81,-81l758 0c45,0 81,36 81,81l0 1326c0,45 -36,81 -81,81z"/>
  <path class="fil11" d="M4056 17401l-453 0 0 -151c0,-21 17,-38 37,-38l379 0c20,0 37,17 37,38l0 151z"/>
  <polygon class="fil12" points="4279,18617 3880,18617 3880,17633 4279,17633 "/>
  <path class="fil10" d="M4056 17396c0,8 -104,15 -232,15 -128,0 -232,-7 -232,-15 0,-8 104,-14 232,-14 128,0 232,6 232,14z"/>
  <path class="fil12" d="M3416 18380c-8,0 -15,-194 -15,-434 0,-239 7,-433 15,-433 8,0 14,194 14,433 0,240 -6,434 -14,434z"/>
  <polygon class="fil12" points="5014,20294 3689,20310 3664,18185 4989,18169 "/>
  <path class="fil10" d="M3690 20309l1323 -16 -25 -2123 -1323 16 25 2123zm1324 -14l-1325 16c0,0 -1,-1 -1,-1l-25 -2125c0,0 0,-1 1,-1l1325 -16c0,0 1,1 1,1l25 2125c0,0 0,1 -1,1z"/>
  <path class="fil7" d="M4989 18169c0,59 -296,110 -661,115 -366,4 -664,-40 -664,-99 -1,-58 295,-110 661,-114 366,-5 663,40 664,98z"/>
  <path class="fil10" d="M4570 18163c0,22 -109,41 -243,42 -135,2 -245,-14 -245,-36 0,-21 109,-40 244,-42 134,-2 244,15 244,36z"/>
  <path class="fil10" d="M4616 20293c-5,0 -15,-451 -22,-1006 -6,-556 -7,-1006 -2,-1006 6,0 16,450 22,1006 7,555 8,1006 2,1006z"/>
  <path class="fil11" d="M1923 19278c31,-420 146,-1486 233,-1898 26,-123 55,-249 127,-352 72,-104 195,-181 320,-162 111,17 200,107 245,210 45,103 62,218 58,331 -22,509 -66,1079 -65,1551l-918 320z"/>
  <path class="fil10" d="M2694 18278c1,2 -32,11 -84,27 -52,16 -123,41 -199,76 -76,34 -142,71 -188,100 -47,28 -75,47 -76,46 0,-1 6,-7 18,-16 12,-10 30,-23 53,-38 45,-31 111,-70 188,-104 76,-35 148,-59 201,-73 27,-7 49,-12 64,-15 15,-2 23,-3 23,-3z"/>
  <path class="fil10" d="M2732 17794c1,2 -34,10 -88,26 -55,17 -129,45 -206,85 -77,41 -142,86 -187,122 -44,35 -70,59 -72,58 0,-1 5,-8 17,-19 11,-12 28,-28 50,-47 43,-37 108,-84 186,-125 78,-41 153,-68 209,-82 28,-8 51,-13 66,-15 16,-3 25,-4 25,-3z"/>
  <path class="fil10" d="M2681 17404c0,2 -27,4 -70,11 -42,8 -100,24 -159,54 -59,29 -107,66 -139,95 -32,29 -49,50 -51,49 -1,-1 3,-6 10,-16 7,-10 19,-24 34,-40 31,-31 79,-70 140,-100 60,-30 120,-45 164,-51 22,-3 40,-4 52,-3 12,0 19,0 19,1z"/>
  <path class="fil12" d="M2255 18595c0,1 0,2 0,2l0 1457c0,64 -51,130 -146,180 -94,50 -232,84 -405,84l-2 0c-345,0 -550,-136 -550,-264l0 -1457c0,0 0,-1 0,-2 0,-1 0,-2 0,-3 0,-143 105,-291 210,-438 71,-98 88,-240 91,-323 1,-9 1,-18 1,-26l-9 0c-46,0 -83,-32 -83,-71l0 -62c0,-39 37,-70 83,-70l517 0c34,0 64,17 76,43 4,8 6,18 6,27l0 62c0,39 -36,71 -82,71l-9 0c0,8 0,17 0,26 4,83 21,225 91,323 106,147 210,295 211,438 0,1 0,2 0,3z"/>
  <path class="fil10" d="M2255 18595c0,0 0,-5 -1,-15 0,-10 -2,-25 -5,-44 -8,-38 -25,-93 -61,-158 -35,-65 -86,-140 -149,-226 -31,-44 -52,-98 -67,-156 -15,-59 -22,-124 -24,-191l0 -5 5 0c19,1 38,-2 55,-12 16,-10 29,-27 31,-46 1,-19 1,-41 1,-62 1,-21 -7,-41 -23,-54 -15,-14 -37,-20 -58,-20 -23,1 -45,1 -68,1 -46,0 -93,0 -140,0 -96,0 -196,0 -299,0 -25,-1 -50,6 -67,24 -8,9 -14,20 -16,32 -2,11 -1,26 -1,38 0,14 0,28 0,40 2,12 8,23 16,33 17,18 43,26 70,25l6 -1 0 7c-1,58 -6,117 -19,176 -14,59 -34,118 -70,170 -35,51 -72,101 -105,155 -34,53 -66,109 -86,170 -11,30 -18,62 -21,94 -2,31 -1,65 -1,98 0,66 0,133 0,201 0,135 0,273 0,412 0,246 0,485 0,717 1,29 -2,58 4,84 6,27 22,51 40,72 37,41 85,70 136,92 50,22 103,37 156,47 53,11 107,15 160,18 105,4 209,-4 306,-28 49,-12 96,-28 139,-50 43,-22 83,-49 112,-85 15,-17 27,-38 34,-59 6,-21 5,-44 5,-67 0,-45 0,-90 0,-134 0,-88 0,-172 1,-252 0,-322 1,-582 2,-762 0,-180 2,-279 2,-279 0,0 1,6 1,18 0,13 0,31 1,54 0,48 0,117 1,207 0,180 1,440 2,762 0,80 0,164 0,252 0,44 0,89 1,134 -1,12 -1,23 -1,35 0,12 -2,24 -5,35 -7,23 -20,45 -35,63 -31,37 -72,66 -116,88 -44,22 -92,39 -141,51 -98,25 -203,33 -310,29 -53,-2 -107,-7 -161,-18 -54,-10 -108,-25 -159,-47 -52,-23 -102,-53 -141,-96 -19,-22 -36,-47 -43,-77 -6,-30 -3,-58 -4,-87 0,-232 0,-471 0,-717 0,-139 0,-277 0,-412 0,-68 0,-135 0,-201 0,-33 -1,-66 1,-99 3,-34 11,-66 21,-97 22,-63 54,-119 88,-173 34,-54 71,-105 106,-155 35,-50 55,-108 68,-165 13,-58 18,-117 19,-174l6 6c-28,1 -59,-8 -79,-30 -9,-10 -16,-24 -18,-39 -1,-15 0,-27 0,-41 0,-13 -1,-25 1,-40 2,-15 9,-28 19,-38 20,-20 49,-28 75,-27 103,0 203,0 299,0 47,0 94,1 140,1 23,0 45,0 68,0 23,-1 47,6 65,21 18,15 27,40 25,62 0,21 1,41 -1,63 -3,23 -18,41 -36,52 -18,12 -40,15 -59,14l4 -4c2,133 28,256 88,343 61,87 113,162 148,228 34,66 52,122 58,160 3,19 4,34 4,44 1,10 0,15 0,15z"/>
  <path class="fil10" d="M1923 17801c0,4 -103,7 -230,7 -127,0 -231,-3 -231,-7 0,-4 104,-6 231,-6 127,0 230,2 230,6z"/>
  <path class="fil13" d="M2209 18789c-47,-30 -108,-16 -158,7 -50,24 -97,57 -152,66 -64,10 -128,-15 -185,-48 -57,-32 -110,-71 -172,-93 -117,-42 -256,-9 -344,81l0 1251c0,0 69,214 553,180 483,-34 445,-247 445,-247l13 -1197z"/>
  <path class="fil12" d="M3660 19362c0,1 1,1 1,2l0 1457c0,64 -52,130 -147,180 -94,50 -232,84 -404,84l-2 0c-345,-1 -551,-136 -551,-264l0 -1457c0,-1 0,-1 0,-2 0,-1 0,-2 0,-3 1,-143 105,-291 211,-438 70,-98 87,-240 91,-323 0,-10 0,-18 0,-26l-9 0c-46,0 -82,-32 -82,-71l0 -62c0,-39 36,-71 82,-71l518 0c34,0 63,18 76,43 4,9 6,18 6,28l0 62c0,39 -37,71 -82,71l-10 0c0,8 0,16 1,26 3,83 20,225 91,323 105,147 210,295 211,438 0,1 -1,2 -1,3z"/>
  <path class="fil10" d="M3660 19362c0,0 0,-5 -1,-15 0,-10 -2,-25 -5,-44 -7,-38 -25,-93 -60,-158 -35,-65 -87,-140 -149,-226 -32,-44 -53,-98 -68,-157 -14,-59 -22,-123 -23,-190l0 -5 4 0c20,1 39,-2 55,-12 16,-10 29,-27 32,-46 1,-20 0,-42 0,-63 2,-20 -6,-40 -22,-53 -16,-14 -37,-20 -59,-20 -22,0 -45,0 -68,0 -45,1 -92,1 -140,1 -96,0 -195,0 -298,0 -25,-1 -50,6 -67,24 -9,9 -15,20 -17,32 -1,11 0,25 -1,38 1,13 0,28 1,40 1,12 7,23 15,32 18,19 44,27 70,26l6 -1 0 7c-1,58 -6,117 -19,176 -13,59 -34,118 -69,170 -36,51 -72,101 -106,155 -34,53 -65,109 -86,170 -10,30 -18,61 -21,93 -1,32 0,66 -1,99 0,66 0,133 0,201 0,135 0,273 0,412 0,246 0,485 0,717 1,28 -2,58 4,84 6,27 22,51 40,71 37,42 86,71 136,93 51,22 104,36 157,47 53,10 106,15 159,18 106,4 209,-4 307,-28 48,-12 95,-28 138,-50 43,-22 83,-49 113,-85 15,-18 26,-38 33,-59 7,-21 5,-44 5,-67 0,-46 0,-90 0,-134 1,-88 1,-172 1,-253 1,-321 2,-581 2,-761 1,-180 2,-279 2,-279 1,0 1,6 1,18 0,13 1,30 1,54 0,48 1,117 1,207 1,180 1,440 2,761 0,81 1,165 1,253 0,44 0,88 0,134 0,11 0,23 0,35 0,12 -3,23 -6,35 -7,23 -19,44 -35,63 -31,37 -72,65 -116,88 -44,22 -92,38 -141,51 -98,24 -203,33 -310,29 -53,-2 -107,-7 -161,-18 -53,-11 -107,-25 -159,-47 -51,-23 -101,-53 -141,-96 -19,-22 -36,-47 -42,-77 -7,-30 -4,-58 -5,-87 0,-232 0,-471 0,-717 0,-139 0,-277 0,-412 0,-68 0,-135 0,-201 1,-33 0,-66 2,-99 2,-34 10,-66 21,-97 21,-63 53,-119 87,-173 34,-54 71,-105 107,-155 34,-50 54,-108 67,-166 13,-57 19,-116 19,-173l6 5c-27,2 -59,-7 -78,-29 -10,-10 -17,-24 -19,-39 -1,-15 0,-27 0,-41 0,-13 -1,-26 1,-40 2,-15 10,-28 19,-38 20,-20 50,-29 76,-27 103,0 202,0 298,0 48,0 95,0 140,0 23,0 46,1 68,1 23,-1 47,6 65,21 18,15 28,40 25,61 0,22 1,42 0,64 -3,22 -18,41 -36,52 -18,11 -40,15 -60,14l4 -4c2,133 28,256 88,343 62,87 113,162 148,228 35,66 52,121 58,160 3,19 5,34 5,44 0,10 0,15 -1,15z"/>
  <path class="fil10" d="M3329 18568c0,4 -103,7 -231,7 -127,0 -230,-3 -230,-7 0,-4 103,-7 230,-7 128,0 231,3 231,7z"/>
  <path class="fil13" d="M3614 19556c-47,-30 -108,-17 -158,7 -50,24 -97,57 -151,66 -64,10 -129,-16 -186,-48 -56,-32 -110,-71 -171,-93 -117,-42 -256,-9 -345,81l0 1251c0,0 69,213 553,180 484,-34 446,-247 446,-247l12 -1197z"/>
  <path class="fil11" d="M927 18098c14,-92 -10,-189 -66,-264 -55,-75 -141,-127 -233,-141 -9,-1 -18,-2 -26,3 -10,7 -10,22 -9,34 8,90 46,176 105,244 59,67 141,115 228,134l1 -10z"/>
  <path class="fil13" d="M430 18753c89,184 218,308 377,314 32,1 56,-20 86,-21 16,1 34,12 51,19 9,3 19,6 27,6 164,-9 304,-125 399,-318 132,-272 91,-563 -91,-651 -26,-13 -50,-22 -74,-29 -29,-8 -58,-12 -90,-11 -56,1 -120,16 -207,47 -2,1 -6,2 -8,3 -148,-65 -266,-65 -380,-10 -182,88 -222,379 -90,651z"/>
  <path class="fil12" d="M433 18478c-1,1 -11,-19 -15,-54 -5,-35 -3,-85 16,-136 19,-51 49,-91 76,-114 26,-23 46,-32 47,-31 1,2 -17,13 -41,38 -24,24 -52,63 -70,111 -18,49 -22,97 -19,131 2,34 8,54 6,55z"/>
  <path class="fil12" d="M466 18607c-3,1 -9,-12 -13,-29 -4,-16 -4,-30 -1,-31 4,-1 10,12 14,28 4,17 4,31 0,32z"/>
  <path class="fil10" d="M1302 17655c1,2 -34,15 -85,46 -26,15 -55,36 -85,61 -30,25 -61,55 -90,90 -29,36 -52,72 -71,106 -19,35 -33,67 -43,96 -20,56 -26,93 -28,92 -1,0 0,-9 2,-26 2,-8 3,-19 6,-30 3,-12 6,-25 11,-39 9,-29 23,-63 41,-98 19,-36 43,-73 72,-109 29,-36 61,-66 92,-92 31,-25 61,-45 88,-59 13,-8 26,-13 36,-19 11,-5 21,-9 29,-11 16,-6 24,-9 25,-8z"/>
  <polygon class="fil5" points="5552,22483 1342,22483 1342,18663 5552,18663 "/>
  <polygon class="fil5" points="5552,22483 1342,22483 1342,18663 5552,18663 "/>
  <polygon class="fil14" points="3819,22483 -391,22483 -391,18663 3819,18663 "/>
  <polygon class="fil13" points="-391,18663 -1266,20055 2778,20055 3819,18663 "/>
  <polygon class="fil15" points="-391,18663 -1266,20055 2778,20055 3819,18663 "/>
  <path class="fil10" d="M3819 18663c0,0 -1,3 -4,7 -4,6 -8,12 -14,20 -14,19 -32,44 -56,77 -50,68 -122,166 -212,288 -183,247 -442,596 -747,1006l-3 3 -5 0c-352,1 -742,1 -1153,1 -798,-1 -1520,-2 -2044,-3 -261,-1 -472,-2 -620,-3 -72,-1 -128,-2 -168,-2 -19,-1 -33,-1 -44,-1 -10,0 -15,-1 -15,-1 0,-1 5,-1 15,-1 11,-1 25,-1 44,-1 40,-1 96,-1 168,-2 148,-1 359,-2 620,-4 524,0 1246,-1 2044,-3 411,1 801,1 1153,1l-8 4c308,-408 569,-755 754,-1001 92,-121 165,-217 216,-284 25,-32 44,-57 58,-75 7,-8 12,-15 16,-20 3,-4 5,-6 5,-6z"/>
  <polygon class="fil11" points="3858,18663 4969,20055 6715,20055 5552,18663 "/>
  <polygon class="fil12" points="3155,21788 197,21567 276,20502 3235,20724 "/>
  <path class="fil10" d="M3155 21788c0,0 0,-6 1,-19 0,-13 2,-31 3,-55 3,-49 8,-120 14,-211 13,-183 32,-449 55,-780l6 7c-726,-54 -1784,-132 -2958,-218l0 0 10 -9c-28,371 -55,730 -80,1064l-9 -10c853,66 1591,123 2117,163 262,21 472,38 617,49 72,6 127,11 166,14 18,1 32,3 43,4 10,0 15,1 15,1 0,0 -5,0 -14,0 -10,-1 -24,-2 -42,-3 -38,-2 -93,-6 -164,-11 -145,-10 -354,-25 -616,-43 -527,-39 -1268,-93 -2123,-155l-9 -1 0 -9c25,-334 52,-694 80,-1065l0 -10 10 1 0 0c1175,89 2232,170 2958,225l7 0 -1 7c-26,333 -48,599 -62,783 -8,91 -13,161 -17,210 -3,23 -4,41 -5,53 -1,12 -2,18 -2,18z"/>
  <polygon class="fil8" points="576,20655 414,20660 405,20346 567,20341 "/>
  <polygon class="fil8" points="3031,21929 2869,21934 2860,21620 3022,21615 "/>
  <polygon class="fil8" points="3089,20862 2935,20810 3035,20512 3189,20564 "/>
  <polygon class="fil8" points="430,21756 277,21704 377,21406 530,21458 "/>
  <path class="fil5" d="M785 21197c75,5 127,-37 132,-107 5,-70 -40,-120 -116,-125l-82 -6 -16 232 82 6zm-125 -295l148 10c109,8 180,81 172,182 -7,102 -86,164 -196,156l-148 -10 24 -338z"/>
  <path class="fil5" d="M1324 21118c5,-69 -43,-122 -111,-127 -68,-5 -122,42 -127,111 -5,69 42,122 111,127 68,5 122,-42 127,-111zm-301 -21c7,-100 89,-168 194,-161 105,8 177,86 170,187 -7,100 -90,168 -194,161 -105,-8 -177,-87 -170,-187z"/>
  <polygon class="fil5" points="1766,20980 1742,21318 1690,21314 1520,21072 1504,21301 1442,21297 1466,20959 1517,20962 1687,21204 1704,20975 "/>
  <path class="fil5" d="M2040 21211l-53 -153 -74 144 127 9zm18 50l-169 -12 -39 76 -65 -4 176 -327 62 4 128 349 -65 -5 -28 -81z"/>
  <polygon class="fil5" points="2266,21068 2154,21061 2158,21007 2445,21028 2441,21081 2329,21073 2309,21358 2246,21353 "/>
  <polygon class="fil5" points="2725,21334 2722,21387 2468,21369 2492,21031 2739,21048 2735,21101 2551,21088 2545,21176 2708,21187 2705,21239 2541,21228 2535,21321 "/>
  <polygon class="fil16" points="19615,22483 13523,22483 13523,19145 19615,19145 "/>
  <polygon class="fil17" points="19615,22483 13523,22483 13523,19145 19615,19145 "/>
  <polygon class="fil14" points="16426,22483 12033,22483 12033,19145 16426,19145 "/>
  <polygon class="fil12" points="16069,21417 13158,21990 12952,20942 15863,20369 "/>
  <path class="fil10" d="M16069 21417c0,0 -2,-7 -5,-19 -2,-13 -6,-31 -11,-54 -10,-48 -24,-117 -42,-207 -37,-180 -89,-441 -155,-766l8 5c-715,141 -1754,347 -2910,576l0 0 8 -12c71,365 141,719 206,1048l-12 -8c840,-163 1566,-304 2084,-405 259,-50 465,-90 608,-117 71,-13 125,-24 163,-31 19,-3 33,-6 43,-8 10,-2 15,-2 15,-2 0,0 -5,1 -14,3 -10,2 -23,5 -41,9 -37,8 -91,19 -161,33 -142,28 -347,70 -605,122 -519,103 -1247,248 -2088,415l-9 2 -2 -10c-65,-328 -135,-682 -206,-1047l-2 -10 9 -2 0 0c1156,-226 2196,-429 2911,-569l7 -2 1 7c63,328 114,590 148,772 17,89 30,158 39,206 5,23 8,41 10,53 2,12 3,18 3,18z"/>
  <polygon class="fil8" points="13282,21010 13127,21058 13034,20757 13189,20710 "/>
  <polygon class="fil8" points="15987,21586 15832,21633 15740,21333 15895,21285 "/>
  <polygon class="fil8" points="15759,20541 15597,20532 15614,20218 15776,20227 "/>
  <polygon class="fil8" points="13434,22110 13272,22101 13289,21787 13451,21796 "/>
  <path class="fil5" d="M13627 21477c74,-15 113,-70 99,-138 -13,-69 -70,-104 -144,-90l-81 17 46 227 80 -16zm-198 -251l145 -29c108,-22 194,30 215,129 20,100 -41,181 -148,203l-145 29 -67 -332z"/>
  <path class="fil5" d="M14126 21258c-14,-68 -73,-106 -140,-93 -67,14 -107,72 -93,140 13,68 73,107 140,93 67,-13 107,-72 93,-140zm-296 60c-19,-98 42,-186 145,-207 103,-21 193,36 213,135 20,98 -41,186 -144,207 -103,20 -194,-37 -214,-135z"/>
  <polygon class="fil5" points="14515,21007 14582,21339 14531,21349 14303,21161 14348,21386 14287,21399 14220,21067 14271,21056 14499,21244 14454,21019 "/>
  <path class="fil5" d="M14841 21157l-92 -133 -32 158 124 -25zm30 44l-166 33 -17 84 -63 13 82 -362 61 -13 217 302 -65 13 -49 -70z"/>
  <polygon class="fil5" points="15021,20960 14911,20982 14901,20930 15183,20873 15193,20925 15083,20947 15139,21227 15078,21240 "/>
  <polygon class="fil5" points="15535,21094 15545,21145 15296,21196 15229,20863 15472,20815 15482,20866 15301,20903 15319,20989 15479,20957 15489,21008 15329,21040 15347,21131 "/>
  <polygon class="fil13" points="11956,19145 11011,20504 15514,20504 16469,19145 "/>
  <polygon class="fil17" points="11956,19145 11011,20504 15514,20504 16469,19145 "/>
  <path class="fil10" d="M16469 19145c0,0 -1,2 -4,7 -3,5 -7,11 -12,19 -12,17 -29,42 -51,74 -45,65 -110,159 -193,278 -167,240 -405,581 -688,986l-3 4 -4 0c-420,0 -905,0 -1421,1 -851,-1 -1621,-2 -2180,-3 -278,-1 -503,-2 -660,-3 -77,-1 -138,-1 -180,-2 -20,0 -35,0 -46,-1 -11,0 -16,-1 -16,-1 0,0 5,0 16,-1 11,0 26,0 46,0 42,-1 102,-1 180,-2 157,-1 382,-2 660,-3 559,-1 1329,-2 2180,-3 516,1 1001,1 1421,1l-7 4c286,-404 526,-743 694,-982 85,-118 151,-212 197,-276 23,-31 40,-56 53,-73 5,-7 10,-13 13,-18 3,-4 5,-6 5,-6z"/>
  <polygon class="fil14" points="19615,19145 20621,20380 17151,20380 16426,19145 "/>
  <path class="fil10" d="M22961 22483c0,5 -5580,9 -12460,9 -6884,0 -12462,-4 -12462,-9 0,-5 5578,-9 12462,-9 6880,0 12460,4 12460,9z"/>
  <path class="fil18" d="M7831 21647c0,0 -2013,663 -2087,693 -111,45 -94,406 81,391 83,-7 1627,-22 1798,-41 171,-19 686,-207 686,-207l-478 -836z"/>
  <path class="fil10" d="M7085 22398c8,1 4,-106 -66,-214 -68,-108 -164,-156 -167,-149 -5,8 77,65 141,166 65,101 82,199 92,197z"/>
  <path class="fil10" d="M7276 22301c8,-1 -2,-96 -60,-197 -56,-101 -132,-159 -137,-152 -6,6 57,71 110,168 54,95 78,183 87,181z"/>
  <path class="fil10" d="M7456 22243c8,2 26,-98 -24,-209 -49,-110 -135,-164 -139,-157 -6,7 66,68 110,170 47,102 44,196 53,196z"/>
  <path class="fil10" d="M7412 22003c5,-1 -6,-54 -5,-139 1,-42 6,-93 18,-147 6,-28 14,-56 25,-84 4,-14 11,-27 19,-34 7,-6 15,-6 25,1 17,13 18,49 21,78 1,29 -1,58 -5,86 -9,54 -26,102 -43,141 -34,78 -63,123 -59,126 3,2 39,-39 79,-117 20,-39 40,-87 51,-145 6,-29 8,-60 7,-92 0,-17 -2,-33 -5,-50 -3,-17 -9,-37 -27,-52 -16,-15 -48,-16 -64,0 -17,15 -23,32 -28,48 -11,30 -18,59 -24,88 -11,57 -14,110 -12,153 5,88 24,140 27,139z"/>
  <path class="fil10" d="M7413 21983c1,5 47,-4 120,-3 37,1 81,6 128,17 23,5 48,11 69,23 21,11 34,30 30,51 -4,22 -22,39 -43,46 -22,8 -47,8 -70,5 -46,-7 -85,-26 -117,-45 -63,-37 -100,-67 -103,-62 -2,2 29,37 91,81 32,21 73,45 125,54 25,5 54,6 84,-4 29,-9 57,-34 64,-70 8,-37 -20,-71 -46,-83 -27,-14 -54,-19 -78,-25 -50,-10 -96,-12 -134,-10 -76,4 -121,22 -120,25z"/>
  <path class="fil10" d="M6060 22727c1,3 33,-10 60,-55 27,-44 38,-121 17,-195 -9,-37 -22,-71 -34,-101 -12,-30 -26,-57 -42,-78 -15,-21 -34,-33 -48,-37 -14,-5 -23,-3 -23,-1 -1,4 30,10 53,51 12,19 22,45 33,76 11,30 22,63 31,97 18,70 12,135 -7,178 -18,42 -43,61 -40,65z"/>
  <path class="fil10" d="M6798 22432c8,3 29,-85 -16,-180 -44,-97 -125,-137 -127,-130 -6,8 59,56 98,143 41,86 36,166 45,167z"/>
  <path class="fil10" d="M8108 22457c-1,-2 -32,10 -89,31 -57,21 -140,48 -246,73 -105,25 -233,46 -375,60 -143,13 -300,20 -466,23 -332,7 -633,13 -850,20 -105,4 -192,7 -258,9 -61,3 -95,6 -94,8 0,2 33,4 94,4 67,1 153,1 258,1 218,-1 518,-4 850,-10 166,-4 325,-11 469,-27 143,-15 272,-39 378,-66 106,-28 189,-59 245,-83 55,-26 85,-42 84,-43z"/>
  <path class="fil10" d="M8166 22497c1,-3 -47,-38 -135,-78 -87,-38 -222,-82 -372,-52 -74,15 -139,50 -190,91 -50,40 -88,84 -118,122 -59,76 -89,127 -86,129 4,3 40,-44 103,-115 62,-69 157,-168 297,-196 140,-29 270,9 357,42 89,34 141,61 144,57z"/>
  <path class="fil19" d="M4510 22449c-349,-129 -629,-404 -751,-756 -34,-100 -56,-201 -53,-297 9,-336 217,-814 740,-1102 115,-64 240,-106 369,-129 240,-41 702,-121 795,-144 0,0 201,-286 191,-349 -11,-64 11,-95 0,-233 -11,-137 222,-529 222,-529l3185 0c0,0 222,349 190,466l159 402c0,0 3412,424 3671,1195 182,540 -306,989 -572,1186 -93,69 -201,114 -315,131l-1298 193 -344 -18c0,0 212,-719 43,-984 -170,-264 -667,-180 -667,-180 0,0 -2063,804 -2296,910 -232,106 -350,145 -350,145 0,0 -2199,225 -2496,204 -117,-8 -275,-56 -423,-111z"/>
  <path class="fil20" d="M8069 22105l232 364 2398 -4c0,0 406,-501 294,-770 -112,-270 -636,-531 -636,-531l-974 305 -1314 636z"/>
  <path class="fil20" d="M7960 20798l40 1339 2075 -836 0 -111c0,-162 -90,-311 -233,-388 -67,-36 -143,-54 -220,-52l-1662 48z"/>
  <path class="fil21" d="M6265 20601c-1,2 -19,0 -52,-5 -33,-5 -81,-11 -140,-17 -119,-12 -284,-19 -465,-4 -182,16 -343,50 -458,82 -58,15 -104,29 -136,40 -32,10 -49,15 -50,14 0,-2 17,-9 48,-21 31,-13 77,-29 134,-46 115,-35 277,-71 460,-87 183,-15 349,-6 468,9 59,8 107,16 140,23 33,7 51,11 51,12z"/>
  <path class="fil21" d="M7505 20680c0,1 -7,0 -20,-3 -15,-3 -34,-8 -58,-13 -49,-12 -121,-29 -210,-49 -89,-19 -196,-39 -315,-51 -120,-12 -253,-14 -391,-2 -276,25 -513,132 -654,246 -71,56 -121,111 -152,150 -32,41 -47,64 -49,63 0,0 3,-6 10,-18 8,-11 17,-29 33,-49 30,-41 79,-98 150,-156 141,-118 381,-229 661,-254 139,-12 273,-10 393,3 121,13 228,35 317,56 89,21 160,40 209,54 23,7 42,12 57,16 12,4 19,7 19,7z"/>
  <path class="fil22" d="M8146 21138c3,-137 -5,-230 -67,-323 -64,-98 -170,-221 -279,-263 -154,-59 -318,-13 -468,54l141 69c136,-1 201,103 248,231 46,128 36,270 17,405 -49,362 -154,715 -309,1045 169,33 425,34 650,-44 124,-308 61,-842 67,-1174z"/>
  <path class="fil21" d="M6245 20597c0,1 -16,-7 -44,-21 -13,-7 -31,-16 -51,-25 -20,-9 -42,-20 -68,-30 -51,-22 -114,-44 -184,-65 -71,-21 -150,-40 -233,-55 -167,-30 -321,-41 -433,-45 -55,-2 -100,-2 -132,-2 -31,-1 -48,-2 -48,-3 0,-1 17,-3 48,-5 31,-2 77,-3 133,-3 112,1 267,9 435,40 84,15 164,35 235,56 70,23 133,46 184,70 26,11 48,23 68,33 20,10 36,19 50,28 26,16 41,26 40,27z"/>
  <path class="fil21" d="M8870 19962c0,1 -6,4 -17,9 -14,5 -30,12 -51,20 -22,9 -49,20 -81,30 -32,11 -68,24 -109,35 -40,12 -85,25 -134,35 -48,13 -101,22 -156,32 -111,19 -233,33 -363,37 -129,4 -253,-2 -364,-13 -56,-6 -109,-12 -158,-21 -50,-8 -95,-17 -136,-27 -42,-8 -79,-19 -111,-27 -33,-8 -61,-17 -83,-25 -21,-6 -38,-12 -52,-17 -12,-4 -18,-6 -18,-7 1,-1 7,1 19,4 14,3 32,8 53,14 22,6 50,14 83,21 33,7 70,17 111,25 42,8 87,17 136,24 49,8 102,13 157,19 111,10 234,16 363,12 128,-5 250,-18 360,-35 55,-10 108,-19 156,-31 48,-10 93,-22 134,-33 41,-10 77,-22 109,-32 32,-9 60,-18 82,-26 21,-7 38,-13 51,-18 12,-4 19,-5 19,-5z"/>
  <path class="fil21" d="M8077 18974c0,0 1,5 2,17 0,13 1,29 1,49 1,46 3,107 4,181 2,156 4,366 6,598 2,117 2,229 -5,330 -6,101 -22,192 -42,267 -18,74 -43,132 -59,171 -9,18 -16,33 -22,45 -5,10 -8,15 -8,15 -1,-1 1,-6 5,-17 5,-12 11,-27 18,-45 15,-41 37,-98 54,-173 17,-74 32,-163 37,-264 7,-101 6,-212 4,-329 -4,-233 -1,-445 -1,-598 1,-74 2,-135 2,-181 1,-20 1,-36 2,-49 0,-11 1,-17 2,-17z"/>
  <path class="fil21" d="M8257 19191c2,3 -22,7 -35,36 -6,14 -9,34 1,51 8,17 30,26 53,22 22,-4 40,-19 43,-38 4,-19 -5,-37 -15,-48 -22,-24 -46,-20 -45,-23 -1,-1 5,-4 15,-3 10,0 25,4 39,17 13,12 26,33 23,60 -3,27 -29,49 -57,53 -29,5 -60,-8 -71,-32 -12,-25 -6,-49 2,-65 10,-16 22,-25 32,-28 10,-4 15,-3 15,-2z"/>
  <path class="fil21" d="M9330 19305c1,1 -7,8 -23,18 -15,11 -40,24 -72,34 -63,23 -163,32 -260,-9 -97,-42 -159,-121 -186,-182 -14,-31 -22,-57 -25,-76 -3,-18 -4,-29 -2,-29 3,-1 8,41 39,99 29,58 90,131 181,171 92,39 187,32 249,14 64,-18 97,-43 99,-40z"/>
  <path class="fil21" d="M5802 19481c1,-3 49,4 128,8 79,4 189,3 308,-13 60,-9 116,-20 167,-32 51,-12 96,-26 127,-48 32,-21 50,-48 58,-68 7,-21 7,-33 9,-33 0,0 3,13 -3,35 -6,22 -23,52 -56,77 -33,25 -80,41 -131,53 -51,14 -108,26 -168,34 -121,16 -232,15 -312,8 -39,-4 -71,-9 -93,-13 -22,-4 -34,-7 -34,-8z"/>
  <path class="fil21" d="M7474 20458c-1,1 -13,-16 -37,-46 -23,-30 -60,-71 -111,-117 -100,-92 -263,-192 -462,-254 -198,-62 -387,-83 -522,-99 -66,-6 -120,-12 -161,-16 -38,-4 -59,-7 -59,-9 0,-1 21,0 59,1 38,2 94,6 162,11 136,13 326,32 527,95 201,62 366,166 465,262 50,47 86,90 108,122 11,15 19,28 24,37 5,8 8,13 7,13z"/>
  <path class="fil21" d="M9784 19892c0,1 -22,4 -61,9 -19,1 -43,4 -71,9 -27,4 -59,8 -93,15 -69,13 -150,33 -238,60 -88,28 -183,65 -279,111 -96,47 -183,99 -259,151 -76,53 -142,104 -194,151 -27,22 -50,45 -70,63 -20,19 -37,36 -51,51 -27,28 -43,43 -44,42 -1,-1 13,-18 39,-47 13,-15 29,-33 49,-53 20,-20 41,-43 68,-66 52,-48 117,-101 193,-155 77,-53 165,-106 261,-154 97,-46 193,-83 282,-110 89,-27 171,-46 241,-57 35,-6 66,-9 94,-12 28,-4 52,-6 72,-7 39,-2 61,-2 61,-1z"/>
  <path class="fil21" d="M10623 20074c0,1 -6,1 -17,2 -14,1 -30,2 -50,4 -21,1 -47,2 -78,5 -30,3 -65,5 -103,10 -76,8 -167,21 -266,41 -99,20 -208,47 -320,82 -111,35 -215,76 -308,116 -93,41 -174,82 -241,120 -35,17 -64,36 -90,51 -27,15 -49,29 -67,40 -17,11 -31,19 -43,26 -10,6 -15,9 -15,8 -1,0 4,-4 13,-11 11,-8 25,-17 41,-29 17,-12 39,-27 65,-43 26,-16 55,-35 89,-54 67,-39 148,-81 241,-123 93,-42 198,-83 310,-119 112,-35 221,-61 322,-81 100,-18 191,-31 268,-37 38,-4 73,-6 104,-7 30,-2 56,-3 78,-3 20,1 36,1 50,1 11,0 17,0 17,1z"/>
  <path class="fil23" d="M12216 20817c1,1 -7,3 -22,6 -15,3 -37,7 -65,11 -57,8 -140,16 -243,19 -102,3 -225,0 -360,-4 -136,-5 -285,-10 -441,-4 -155,6 -303,26 -433,64 -129,38 -239,92 -324,149 -84,57 -144,115 -181,159 -37,43 -54,70 -55,69 -1,0 3,-7 11,-20 8,-13 21,-31 39,-54 36,-45 94,-106 179,-165 84,-59 195,-115 326,-154 131,-40 281,-60 438,-67 157,-6 306,1 441,6 136,5 258,9 360,8 102,-1 185,-7 242,-13 27,-3 49,-6 65,-8 15,-2 23,-2 23,-2z"/>
  <path class="fil24" d="M10075 21301c0,1 -6,4 -19,10 -15,6 -33,14 -56,24 -51,20 -122,49 -208,84 -178,71 -420,168 -688,274 -268,109 -508,211 -682,288 -84,38 -154,69 -204,91 -23,10 -42,19 -56,25 -13,6 -20,8 -20,8 0,-1 6,-5 18,-11 14,-7 32,-17 55,-28 47,-24 116,-57 202,-97 172,-80 412,-184 680,-293 269,-108 513,-202 690,-269 87,-33 158,-60 210,-79 24,-9 43,-15 58,-21 13,-4 20,-6 20,-6z"/>
  <path class="fil20" d="M9637 20748l412 1c125,1 242,65 310,170l52 80c-146,89 -256,190 -336,302l-134 13 -304 -566z"/>
  <path class="fil22" d="M9989 21336c210,-31 444,-47 619,73 136,94 203,235 220,400 16,165 -13,330 -38,493 -7,51 -13,142 30,170 27,18 74,10 106,5 90,-13 207,-6 254,-84 31,-49 9,-161 8,-218 -2,-131 -7,-263 -16,-394 -11,-156 -29,-318 -113,-450 -56,-87 -137,-155 -229,-202 -279,-144 -794,-22 -841,207z"/>
  <path class="fil21" d="M12496 20856c-1,0 -7,-12 -23,-29 -17,-18 -45,-38 -85,-52 -40,-15 -91,-23 -148,-27 -57,-5 -120,-8 -186,-9 -132,-1 -251,9 -337,20 -86,11 -139,21 -140,18 0,-2 13,-5 37,-11 24,-6 58,-13 101,-20 86,-14 206,-27 340,-25 66,0 129,4 187,10 57,5 109,15 151,31 41,16 70,40 85,60 8,10 13,18 15,24 3,6 4,9 3,10z"/>
  <path class="fil21" d="M10406 20992c-3,1 -5,-35 -32,-83 -26,-48 -79,-106 -154,-144 -75,-38 -152,-53 -206,-65 -55,-10 -89,-17 -89,-20 1,-2 35,0 91,8 55,8 134,21 212,61 79,39 134,102 158,154 12,26 18,49 20,64 2,16 1,25 0,25z"/>
  <path class="fil21" d="M7505 20680c0,0 4,5 10,15 8,12 16,26 27,44 12,19 26,43 39,72 14,29 31,61 44,99 8,19 15,38 23,59 8,20 13,42 20,65 16,45 25,94 37,146 18,105 29,222 25,344 -5,123 -24,239 -50,342 -15,51 -28,100 -45,144 -15,45 -34,85 -50,121 -16,37 -35,68 -49,97 -15,28 -30,51 -42,70 -12,17 -21,31 -29,43 -7,9 -10,14 -11,14 0,0 2,-6 8,-16 7,-12 15,-27 26,-45 11,-19 25,-43 38,-71 14,-29 32,-60 47,-97 16,-37 33,-77 47,-121 17,-44 30,-93 43,-143 25,-102 44,-217 49,-338 4,-122 -6,-237 -24,-341 -11,-51 -20,-100 -34,-145 -7,-22 -12,-44 -19,-65 -8,-20 -15,-40 -22,-59 -12,-37 -29,-69 -41,-99 -12,-29 -25,-53 -36,-72 -10,-19 -17,-34 -24,-46 -5,-11 -8,-16 -7,-17z"/>
  <path class="fil21" d="M8146 21138c-1,-1 0,-19 -1,-54 0,-33 -4,-83 -21,-141 -17,-59 -46,-125 -95,-189 -48,-64 -115,-123 -199,-161 -95,-43 -196,-55 -283,-46 -87,8 -160,36 -212,64l-1 -10c42,22 76,39 103,53 24,12 36,20 36,21 -1,1 -14,-5 -39,-15 -27,-13 -62,-29 -105,-48l-10 -5 10 -6c53,-31 127,-61 217,-71 89,-9 193,2 291,46 87,39 157,102 206,167 49,67 78,136 93,196 16,60 18,111 17,145 -1,18 -3,31 -4,40 -1,9 -2,14 -3,14z"/>
  <path class="fil21" d="M10392 21086c0,-1 6,-1 19,-1 12,-1 30,0 53,0 47,2 114,4 197,19 82,15 181,44 271,110 91,66 168,166 220,283 53,117 75,239 81,349 7,111 0,210 -9,293 -8,83 -19,149 -26,195 -4,22 -7,39 -10,53 -2,12 -3,18 -4,18 -1,0 0,-6 1,-18 1,-15 3,-32 6,-54 5,-46 13,-113 20,-195 7,-83 13,-182 6,-291 -8,-108 -30,-228 -82,-343 -50,-114 -126,-212 -213,-276 -87,-65 -183,-95 -264,-111 -81,-17 -148,-21 -194,-25 -22,-1 -39,-3 -53,-4 -13,-1 -19,-1 -19,-2z"/>
  <path class="fil25" d="M9891 14640c0,0 -182,-160 -504,-227 -322,-68 -1634,-26 -1634,-26l-1107 143c0,0 -595,212 -764,946 -169,733 59,2965 59,2965 0,0 61,152 72,311 0,3 1,6 1,9 -3,49 -1,99 9,149l119 0c180,139 485,281 485,281 0,0 32,-117 97,-281l2484 0c0,0 253,139 371,-234 119,-373 472,-517 552,-1175 79,-657 -240,-2861 -240,-2861z"/>
  <path class="fil10" d="M6679 18907c-1,-1 3,-19 12,-51 5,-16 10,-36 19,-58 8,-22 16,-48 28,-76 23,-55 54,-120 93,-189 40,-68 89,-141 147,-212 58,-71 119,-134 178,-187 60,-52 117,-96 167,-129 24,-18 48,-31 68,-43 20,-13 38,-23 53,-30 30,-16 47,-24 47,-23 1,2 -15,12 -43,29 -15,8 -32,19 -52,32 -19,14 -42,28 -66,46 -49,34 -104,78 -162,131 -58,53 -118,115 -176,185 -57,71 -106,142 -146,210 -40,68 -72,131 -96,185 -13,27 -22,53 -31,74 -9,22 -16,42 -21,57 -11,32 -18,49 -19,49z"/>
  <path class="fil25" d="M9891 14640c0,0 170,237 275,583 104,347 819,2443 819,2443l-961 742 -310 -254 177 -3514z"/>
  <path class="fil10" d="M7153 17773c-1,-2 16,-19 52,-30 35,-12 92,-15 144,13 53,28 81,77 91,113 10,37 5,60 4,60 -4,0 -4,-23 -16,-56 -12,-32 -41,-76 -87,-101 -47,-25 -99,-25 -133,-17 -34,8 -53,20 -55,18z"/>
  <path class="fil10" d="M7124 17373c1,-2 25,4 60,24 35,20 78,59 110,112 31,54 43,111 44,151 1,40 -7,64 -9,64 -3,0 0,-25 -4,-63 -4,-39 -17,-91 -47,-142 -30,-51 -69,-89 -101,-111 -31,-22 -54,-32 -53,-35z"/>
  <path class="fil10" d="M7037 15153c1,0 5,7 12,20 7,15 17,35 29,60 14,25 26,59 40,97 6,20 14,41 22,62 6,23 12,47 18,72 28,100 47,222 61,357 13,136 18,287 18,444 -1,315 -18,599 -21,805 -2,52 -2,98 -2,139 0,41 0,76 1,105 0,27 0,49 0,66 0,16 0,24 0,24 -1,0 -2,-8 -3,-23 -1,-17 -3,-39 -5,-67 -2,-28 -3,-64 -3,-105 -1,-41 -2,-87 -1,-139 0,-206 15,-491 16,-805 0,-157 -5,-307 -17,-442 -13,-135 -30,-257 -56,-356 -6,-25 -12,-49 -18,-71 -7,-22 -14,-43 -20,-62 -13,-39 -24,-73 -36,-98 -11,-25 -20,-46 -27,-61 -5,-14 -8,-22 -8,-22z"/>
  <path class="fil10" d="M7114 17857c1,2 -13,10 -39,24 -26,14 -63,35 -107,63 -45,28 -96,64 -151,106 -54,43 -111,93 -168,150 -56,57 -105,116 -147,171 -41,55 -76,107 -103,152 -27,45 -48,82 -61,109 -14,26 -22,40 -23,39 -1,0 5,-15 17,-42 11,-28 30,-66 56,-112 25,-47 60,-100 101,-156 42,-56 91,-116 147,-174 57,-57 115,-108 171,-150 56,-42 108,-78 154,-104 46,-27 84,-46 111,-58 27,-13 42,-19 42,-18z"/>
  <path class="fil10" d="M9696 18471c0,0 1,-3 4,-8 3,-6 7,-13 11,-22 11,-19 26,-47 47,-83 41,-72 104,-174 182,-300 38,-63 77,-134 100,-217 25,-83 48,-173 64,-269 17,-96 29,-198 35,-304 6,-106 6,-216 5,-329 -6,-451 -70,-857 -134,-1145 -32,-144 -64,-260 -85,-340 -11,-38 -20,-69 -26,-91 -3,-10 -5,-18 -7,-24 -1,-6 -2,-8 -1,-9 0,0 1,3 3,8 2,7 5,14 8,24 7,22 17,52 30,90 23,80 57,195 91,339 67,288 133,695 139,1148 2,113 1,223 -5,330 -7,107 -19,209 -36,306 -17,96 -40,187 -66,271 -25,84 -65,157 -104,219 -80,125 -144,226 -187,297 -21,34 -37,61 -49,81 -6,9 -10,15 -14,21 -3,5 -5,7 -5,7z"/>
  <path class="fil20" d="M13010 17468c126,-422 533,-574 786,-743 178,150 -154,346 -241,418 -30,327 494,44 552,51 13,9 142,-147 281,-319 73,-64 205,11 156,108 109,-7 109,96 46,218 22,66 36,238 -48,314 -3,13 -19,290 -102,371 -500,306 -1261,500 -1261,500l-3155 22 437 -1035 2548 95 1 0z"/>
  <path class="fil24" d="M13855 17562c0,2 14,2 38,0 25,-2 60,-8 102,-19 85,-22 198,-73 301,-160 103,-87 172,-191 207,-270 18,-40 30,-74 36,-98 6,-23 8,-37 6,-37 -4,-2 -19,50 -59,126 -40,76 -109,173 -208,258 -100,84 -208,136 -289,162 -81,27 -135,33 -134,38z"/>
  <path class="fil24" d="M13978 17762c0,3 50,0 127,-25 76,-25 177,-77 267,-162 90,-86 147,-184 176,-259 29,-76 34,-126 31,-126 -5,-1 -16,47 -49,118 -32,71 -90,164 -177,247 -87,82 -182,135 -255,164 -73,29 -121,38 -120,43z"/>
  <path class="fil24" d="M13959 17952c1,3 43,-5 110,-25 65,-19 158,-49 248,-108 91,-58 151,-139 185,-199 35,-61 43,-104 40,-105 -4,-1 -19,39 -57,95 -38,56 -96,130 -183,186 -87,56 -176,88 -240,113 -64,24 -104,39 -103,43z"/>
  <path class="fil24" d="M13511 17957c1,2 44,-26 88,-94 43,-66 83,-176 69,-300 -6,-62 -28,-117 -49,-164 -20,-48 -36,-90 -39,-128 -9,-77 27,-117 22,-119 -1,-1 -11,7 -22,27 -12,20 -21,53 -20,93 1,41 16,88 36,136 19,49 39,100 44,158 14,116 -21,221 -58,287 -38,67 -75,100 -71,104z"/>
  <path class="fil5" d="M14092 17387l-3656 0c-183,0 -330,-148 -330,-330l0 -37c0,-183 147,-331 330,-331l3656 0c183,0 330,148 330,331l0 37c0,182 -147,330 -330,330z"/>
  <path class="fil5" d="M14137 16689l-3657 0c-182,0 -330,-147 -330,-330l0 -37c0,-182 148,-330 330,-330l3657 0c182,0 330,148 330,330l0 37c0,183 -148,330 -330,330z"/>
  <path class="fil10" d="M10969 16689c0,-5 718,-9 1604,-9 886,0 1605,4 1605,9 0,6 -719,10 -1605,10 -886,0 -1604,-4 -1604,-10z"/>
  <path class="fil6" d="M11592 17390c-2,0 -15,-36 -29,-96 -13,-60 -26,-145 -27,-240 0,-95 10,-180 23,-240 12,-61 25,-97 27,-97 3,1 -5,38 -14,99 -10,60 -18,145 -17,238 1,93 11,177 21,238 10,60 19,97 16,98z"/>
  <path class="fil6" d="M12237 17403c-2,1 -13,-37 -25,-100 -11,-62 -22,-150 -23,-247 -1,-98 8,-186 19,-249 10,-62 21,-100 23,-100 3,1 -3,39 -10,102 -7,63 -14,150 -13,246 0,97 9,184 17,246 8,63 15,102 12,102z"/>
  <path class="fil6" d="M12901 17404c-2,0 -12,-38 -22,-102 -9,-63 -18,-151 -19,-249 -1,-97 6,-186 15,-249 8,-63 17,-102 19,-102 3,1 -1,40 -7,103 -5,64 -10,151 -9,248 1,97 8,185 14,248 7,63 12,102 9,103z"/>
  <path class="fil6" d="M13642 17378c-2,1 -8,-36 -15,-96 -7,-61 -15,-144 -20,-236 -5,-92 -8,-176 -8,-236 -1,-61 1,-98 3,-98 3,0 6,37 10,97 3,67 8,147 13,236 6,89 11,169 15,235 3,61 5,98 2,98z"/>
  <path class="fil6" d="M13977 16692c-5,0 -12,-153 -16,-343 -3,-189 -2,-343 3,-343 6,0 12,153 16,343 3,189 2,343 -3,343z"/>
  <path class="fil6" d="M13224 16677c-2,0 -11,-38 -19,-101 -8,-63 -14,-151 -13,-248 2,-97 12,-184 23,-247 11,-63 21,-100 23,-100 3,1 -3,39 -10,102 -8,63 -15,149 -17,246 -2,96 2,183 7,246 5,63 9,102 6,102z"/>
  <path class="fil6" d="M12488 16697c-3,0 -10,-39 -16,-104 -6,-64 -9,-154 -5,-253 5,-99 17,-189 29,-252 11,-64 22,-103 25,-102 2,0 -4,40 -13,104 -8,64 -18,152 -22,251 -5,98 -3,187 -1,251 3,65 5,105 3,105z"/>
  <path class="fil6" d="M11813 16702c-2,0 -14,-38 -26,-101 -11,-63 -22,-152 -22,-250 0,-98 11,-187 22,-250 12,-63 24,-101 26,-101 3,1 -4,40 -13,103 -8,63 -17,151 -17,248 0,97 9,185 17,248 9,63 16,102 13,103z"/>
  <path class="fil6" d="M11050 16676c-1,0 -5,-8 -12,-25 -7,-16 -16,-40 -25,-71 -18,-61 -35,-148 -37,-245 -2,-98 12,-185 28,-247 7,-31 15,-55 22,-72 6,-16 10,-25 11,-25 3,1 -8,38 -21,100 -12,62 -23,148 -22,243 2,96 17,182 32,243 14,61 27,98 24,99z"/>
  <path class="fil6" d="M10927 17354c-2,1 -22,-31 -45,-87 -23,-56 -47,-137 -56,-230 -8,-92 -1,-177 11,-236 12,-59 26,-94 28,-94 3,1 -6,37 -15,96 -8,59 -14,142 -5,232 8,91 29,171 49,227 19,57 35,90 33,92z"/>
  <path class="fil6" d="M10485 17329c-1,1 -21,-29 -41,-85 -19,-55 -35,-135 -38,-224 -2,-88 7,-168 15,-226 7,-57 14,-92 17,-92 2,1 0,36 -5,94 -4,57 -10,137 -8,224 2,87 16,166 32,220 15,55 31,88 28,89z"/>
  <path class="fil6" d="M10596 15992c3,2 -16,37 -38,98 -21,61 -40,149 -40,248 0,98 17,187 33,250 15,63 27,101 25,102 -2,1 -6,-9 -13,-26 -7,-17 -16,-42 -25,-73 -19,-63 -38,-152 -39,-253 0,-101 22,-191 47,-252 13,-31 25,-55 34,-70 10,-16 15,-24 16,-24z"/>
  <path class="fil11" d="M13776 15992l-2705 0c-135,0 -245,-110 -245,-245l0 -27c0,-135 110,-244 245,-244l2705 0c135,0 245,109 245,244l0 27c0,135 -110,245 -245,245z"/>
  <path class="fil11" d="M13809 15476l-2705 0c-135,0 -245,-110 -245,-245l0 -27c0,-135 110,-244 245,-244l2705 0c135,0 245,109 245,244l0 27c0,135 -110,245 -245,245z"/>
  <path class="fil10" d="M11448 15470c0,-5 532,-9 1188,-9 656,0 1187,4 1187,9 0,5 -531,9 -1187,9 -656,0 -1188,-4 -1188,-9z"/>
  <path class="fil6" d="M11482 14975c1,3 -30,23 -81,54 -56,35 -124,78 -199,124 -74,48 -140,91 -196,127 -50,33 -81,53 -83,50 -1,-2 27,-25 76,-61 48,-35 116,-82 194,-131 77,-49 148,-91 201,-120 53,-29 86,-45 88,-43z"/>
  <path class="fil6" d="M12220 14980c3,4 -157,117 -358,251 -200,134 -364,239 -367,235 -3,-4 157,-116 357,-250 200,-135 365,-240 368,-236z"/>
  <path class="fil6" d="M12988 14980c3,4 -157,117 -357,251 -200,134 -365,239 -368,235 -2,-4 158,-116 358,-250 200,-135 364,-240 367,-236z"/>
  <path class="fil6" d="M11967 15482c3,4 -157,117 -357,251 -200,134 -365,239 -368,235 -3,-4 157,-116 357,-250 201,-135 365,-240 368,-236z"/>
  <path class="fil6" d="M12848 15482c3,4 -157,117 -357,251 -200,134 -365,239 -367,235 -3,-4 157,-116 357,-250 200,-135 364,-240 367,-236z"/>
  <path class="fil6" d="M13730 15482c2,4 -158,117 -358,251 -200,134 -364,239 -367,235 -3,-4 157,-116 357,-250 200,-135 365,-240 368,-236z"/>
  <path class="fil6" d="M13757 14980c3,4 -157,117 -358,251 -200,134 -364,239 -367,235 -3,-4 157,-116 357,-250 200,-135 365,-240 368,-236z"/>
  <path class="fil20" d="M7573 19079c734,-417 1907,-1350 1907,-1350l-320 -647 -1578 788c-351,176 -628,473 -778,836l-187 451c315,115 664,87 956,-78z"/>
  <path class="fil11" d="M14117 18070l-3656 0c-183,0 -330,-147 -330,-330l0 -37c0,-182 147,-330 330,-330l3656 0c183,0 330,148 330,330l0 37c0,183 -147,330 -330,330z"/>
  <path class="fil10" d="M14163 17378c0,5 -836,10 -1865,10 -1031,0 -1865,-5 -1865,-10 0,-5 834,-9 1865,-9 1029,0 1865,4 1865,9z"/>
  <path class="fil10" d="M14206 18000c0,0 -3,0 -9,-1 -8,-1 -18,-2 -29,-4 -27,-4 -64,-9 -111,-16 -98,-15 -237,-36 -408,-62 -345,-52 -820,-123 -1347,-198 -526,-74 -1003,-139 -1348,-184 -172,-23 -311,-42 -409,-55 -47,-6 -84,-11 -111,-15 -12,-2 -21,-3 -29,-4 -6,-2 -10,-2 -9,-3 0,0 3,0 9,1 8,0 18,1 30,2 26,3 64,7 111,12 98,12 238,28 410,49 345,42 823,104 1349,179 526,75 1002,148 1346,204 171,28 309,51 407,67 47,8 84,15 110,20 12,2 21,4 29,5 6,1 10,2 9,3z"/>
  <path class="fil10" d="M13988 17375c0,2 -19,7 -55,16 -38,10 -89,22 -150,38 -127,31 -302,74 -495,126 -193,51 -367,100 -492,136 -61,18 -111,32 -149,43 -36,9 -55,14 -56,13 0,-1 19,-8 53,-20 35,-12 85,-28 148,-48 125,-39 298,-91 491,-142 193,-51 369,-93 497,-121 64,-14 116,-25 152,-32 36,-7 56,-10 56,-9z"/>
  <path class="fil20" d="M9160 17083l592 -545 676 -284c0,0 50,89 -39,182 -90,93 -264,199 -329,249 -62,47 -118,93 -83,192 16,45 86,90 248,107 162,17 527,0 551,99 23,98 -93,121 -93,121l-481 29c0,0 -99,-29 -76,47 24,75 76,133 76,133 0,0 614,296 655,400 40,104 23,150 0,145 -23,-6 -564,-220 -564,-220 0,0 645,377 633,435 -11,58 -34,81 -104,75 -70,-6 -540,-275 -540,-275 0,0 366,275 372,316 6,40 -41,63 -87,46 -46,-18 -524,-296 -524,-296l-690 -336 -193 -620z"/>
  <path class="fil20" d="M7444 11822l-11 -217 1297 -289c401,-55 849,335 887,738 42,448 76,996 33,1332 -86,677 -599,779 -599,779l18 432c17,388 -284,716 -673,733 -380,17 -704,-271 -733,-650l-219 -2858z"/>
  <path class="fil10" d="M9438 12578c3,46 -33,86 -81,90 -47,4 -88,-30 -91,-75 -3,-46 33,-86 80,-90 48,-4 89,30 92,75z"/>
  <path class="fil10" d="M9484 12344c-11,12 -78,-35 -171,-31 -92,1 -159,51 -170,40 -5,-5 6,-25 35,-48 28,-22 77,-45 135,-46 58,-2 107,18 136,39 29,21 40,41 35,46z"/>
  <path class="fil10" d="M8573 12593c3,46 -33,86 -81,90 -47,4 -88,-29 -91,-75 -3,-46 33,-86 80,-90 48,-4 89,30 92,75z"/>
  <path class="fil10" d="M8571 12390c-10,11 -77,-35 -170,-32 -93,2 -160,52 -170,41 -5,-5 5,-26 34,-48 28,-23 78,-45 136,-47 57,-1 107,19 135,40 30,21 40,41 35,46z"/>
  <path class="fil10" d="M8929 13068c0,-5 57,-17 150,-32 24,-3 46,-8 50,-24 5,-18 -6,-43 -18,-70 -24,-57 -49,-116 -76,-179 -105,-254 -182,-463 -172,-467 10,-5 104,198 209,452 26,63 50,123 73,180 10,27 26,57 15,93 -5,18 -22,31 -38,36 -15,5 -28,5 -40,6 -94,8 -152,11 -153,5z"/>
  <path class="fil24" d="M9051 14166c0,0 -475,43 -932,-213 0,0 242,464 936,381l-4 -168z"/>
  <path class="fil24" d="M8897 13293c-35,-43 -94,-65 -152,-57 -40,6 -80,26 -104,60 -23,33 -27,80 -4,111 27,34 79,41 123,27 44,-14 81,-45 117,-75 9,-8 19,-17 25,-28 6,-11 7,-26 -1,-35l-4 -3z"/>
  <path class="fil10" d="M8658 13141c15,-1 18,100 107,168 88,70 195,55 197,69 1,6 -24,20 -69,23 -44,3 -110,-9 -164,-52 -54,-42 -79,-100 -83,-141 -5,-42 5,-67 12,-67z"/>
  <path class="fil10" d="M8584 12127c-9,25 -102,16 -211,33 -108,14 -195,49 -211,27 -6,-11 8,-35 43,-61 35,-25 90,-50 155,-60 65,-9 126,0 166,15 40,14 61,34 58,46z"/>
  <path class="fil10" d="M9471 12026c-16,21 -81,1 -158,3 -77,-2 -141,18 -157,-3 -7,-11 3,-32 31,-53 27,-21 74,-39 126,-39 53,0 100,18 127,39 28,21 38,42 31,53z"/>
  <path class="fil10" d="M9835 11444c132,-96 191,-279 149,-437 -42,-158 -177,-285 -335,-328 -158,-42 -333,-3 -465,93 2,-75 -61,-141 -133,-162 -73,-20 -151,-2 -220,29 -121,56 -221,155 -278,275 -68,-108 -199,-174 -326,-165 -128,9 -248,93 -300,210 -20,47 -31,97 -57,140 -27,43 -88,71 -146,71l0 1c-80,0 -164,47 -236,94 -104,67 -244,256 -242,462 5,454 147,687 160,1123 1,29 2,60 18,84 42,62 141,31 198,-17 138,-118 209,-297 244,-476 35,-178 39,-362 73,-540 0,-4 1,-9 2,-13 14,-75 45,-144 90,-204 54,35 107,71 165,98 207,95 475,33 619,-143 143,112 325,172 506,167 181,-5 360,-45 495,-165 26,-23 60,-63 75,-116 10,-33 -23,-72 -56,-81z"/>
  <path class="fil20" d="M7580 12691c-9,-4 -366,-127 -371,243 -6,369 366,299 367,288 1,-11 4,-531 4,-531z"/>
  <path class="fil24" d="M7465 13080c-1,-1 -6,5 -17,10 -11,4 -29,7 -48,0 -39,-15 -71,-78 -72,-144 0,-34 7,-66 19,-92 12,-27 30,-46 50,-49 19,-4 33,8 37,18 5,11 3,18 5,19 1,1 8,-6 5,-22 -1,-7 -6,-16 -14,-23 -9,-7 -22,-11 -36,-10 -28,2 -54,27 -68,56 -15,29 -24,65 -24,103 2,75 39,145 92,161 26,7 48,0 59,-9 11,-9 13,-17 12,-18z"/>
  <path class="fil18" d="M9711 11061c0,3 -46,-20 -133,-23 -44,-1 -98,3 -157,21 -30,9 -60,22 -91,38 -31,18 -62,38 -91,64 -28,26 -55,57 -77,93 -22,35 -36,79 -34,123 3,21 9,43 25,58 15,16 37,25 60,23 45,-4 88,-42 97,-90 10,-48 -6,-101 -33,-146 -27,-46 -66,-85 -113,-114 -94,-59 -217,-80 -330,-47 -55,17 -108,47 -145,89 -37,41 -62,98 -47,149 13,53 69,81 120,80 52,1 101,-26 123,-71 23,-45 22,-97 7,-142 -15,-45 -46,-82 -84,-107 -76,-49 -167,-53 -242,-36 -76,15 -138,52 -186,92 -47,40 -79,83 -101,121 -43,76 -47,127 -50,126 0,0 0,-3 1,-9 1,-6 3,-15 5,-26 6,-22 16,-56 38,-95 21,-39 53,-83 101,-125 47,-41 111,-80 189,-97 77,-18 172,-15 254,37 40,25 74,65 90,114 17,48 18,105 -7,154 -12,25 -32,47 -56,61 -25,14 -53,21 -82,21 -29,0 -58,-7 -83,-22 -26,-15 -46,-41 -54,-71 -9,-29 -6,-61 4,-89 10,-29 26,-55 46,-77 20,-23 44,-42 70,-58 13,-8 27,-14 41,-21 14,-6 28,-11 43,-16 119,-34 246,-12 344,50 49,30 91,72 119,120 28,48 46,104 34,159 -10,55 -59,98 -112,102 -27,2 -54,-9 -72,-28 -19,-18 -27,-44 -29,-68 -2,-49 13,-94 37,-132 23,-37 51,-68 81,-95 30,-26 62,-47 93,-64 32,-16 63,-29 94,-38 61,-17 116,-21 160,-18 22,0 42,5 58,7 17,4 31,7 42,10 10,4 18,7 25,9 6,2 8,4 8,4z"/>
 </g>
</svg>
