<svg id="profile" xmlns="http://www.w3.org/2000/svg" width="37" height="37" viewBox="0 0 37 37">
  <path id="Path_1041" data-name="Path 1041" d="M16,9a4,4,0,1,1-4-4A4,4,0,0,1,16,9ZM14,9a2,2,0,1,1-2-2A2,2,0,0,1,14,9Z" transform="translate(6.5 3.286)" fill="#fff" fill-rule="evenodd"/>
  <path id="Path_1042" data-name="Path 1042" d="M19.5,1A18.5,18.5,0,1,0,38,19.5,18.5,18.5,0,0,0,19.5,1ZM4.364,19.5a15.071,15.071,0,0,0,3.209,9.32,15.138,15.138,0,0,1,23.963-.14A15.137,15.137,0,1,0,4.364,19.5ZM19.5,34.636a15.074,15.074,0,0,1-9.54-3.384,11.775,11.775,0,0,1,19.217-.113A15.076,15.076,0,0,1,19.5,34.636Z" transform="translate(-1 -1)" fill="#fff" fill-rule="evenodd"/>
</svg>
