<svg id="Layer_1" enable-background="new 0 0 504.271 504.271" height="512" viewBox="0 0 504.271 504.271" width="512" xmlns="http://www.w3.org/2000/svg"><g><path d="m30 416.469-30 60h348.542l-30-60z"/><path d="m337.774 223.802c.721 9.395.407 13.056.642 36.542h165.855c0-13.179 0-23.921 0-36.542-20.88 0-145.796 0-166.497 0z"/><path d="m460.271 290.344h-121.672l.607 100.373 42.877 85.752h121.216l-43.028-64.542z"/><path d="m497.817 193.802-127.626-127.626-73.328 61.107c16.669 18.846 29.084 41.525 35.783 66.518h165.171z"/><path d="m203.968 296.437c-.93-32.602-27.014-58.733-59.664-59.664.927 32.603 27.015 58.733 59.664 59.664z"/><path d="m309.181 386.469-.91-150c0-60.178-39.583-111.271-94.077-128.643l45.577-80.024c-21.376 0-21.376 20-42.752 20-21.377 0-21.377-20-42.753-20-21.373 0-21.373 20-42.747 20s-21.374-20-42.748-20l45.273 79.489c-55.367 16.848-95.772 68.394-95.772 129.269l.908 149.909zm-193.711-166.143 1.736-10.65 10.65-1.737c28.977-4.73 58.652 4.826 79.386 25.559 20.732 20.733 30.287 50.409 25.56 79.384l-1.738 10.651c-8.084 1.157-14.62 2.926-25.321 2.926-24.059.001-47.475-9.51-64.713-26.748-20.735-20.732-30.29-50.408-25.56-79.385z"/></g></svg>